<?xml version="1.0" encoding="UTF-8" standalone="no"?>
<!-- Created with Inkscape (http://www.inkscape.org/) -->

<svg
   xmlns:dc="http://purl.org/dc/elements/1.1/"
   xmlns:cc="http://creativecommons.org/ns#"
   xmlns:rdf="http://www.w3.org/1999/02/22-rdf-syntax-ns#"
   xmlns:svg="http://www.w3.org/2000/svg"
   xmlns="http://www.w3.org/2000/svg"
   xmlns:sodipodi="http://sodipodi.sourceforge.net/DTD/sodipodi-0.dtd"
   xmlns:inkscape="http://www.inkscape.org/namespaces/inkscape"
   sodipodi:docname="ranger_vimlike_star.svg"
   inkscape:version="0.92.3 (2405546, 2018-03-11)"
   id="svg8"
   version="1.1"
   viewBox="0 0 105.83333 105.83334"
   height="400"
   width="400"
   inkscape:export-filename="/home/hut/rangerlogo4.png"
   inkscape:export-xdpi="96"
   inkscape:export-ydpi="96">
  <defs
     id="defs2" />
  <sodipodi:namedview
     inkscape:window-maximized="1"
     inkscape:window-y="0"
     inkscape:window-x="0"
     inkscape:window-height="1052"
     inkscape:window-width="1920"
     showgrid="true"
     inkscape:current-layer="layer1"
     inkscape:document-units="mm"
     inkscape:cy="223.68465"
     inkscape:cx="172.66418"
     inkscape:zoom="1.2162237"
     inkscape:pageshadow="2"
     inkscape:pageopacity="0.0"
     borderopacity="1.0"
     bordercolor="#666666"
     pagecolor="#ffffff"
     id="base"
     inkscape:snap-bbox="true"
     inkscape:snap-global="true"
     units="px"
     showguides="false">
    <inkscape:grid
       type="xygrid"
       id="grid16" />
  </sodipodi:namedview>
  <metadata
     id="metadata5">
    <rdf:RDF>
      <cc:Work
         rdf:about="">
        <dc:format>image/svg+xml</dc:format>
        <dc:type
           rdf:resource="http://purl.org/dc/dcmitype/StillImage" />
        <dc:title />
      </cc:Work>
    </rdf:RDF>
  </metadata>
  <g
     inkscape:label="Layer 1"
     inkscape:groupmode="layer"
     id="layer1"
     transform="translate(0,-191.16665)">
    <path
       sodipodi:type="star"
       id="path10"
       sodipodi:sides="5"
       sodipodi:cx="54.428574"
       sodipodi:cy="37.141373"
       sodipodi:r1="36.953687"
       sodipodi:r2="22.137846"
       sodipodi:arg1="-0.30724692"
       sodipodi:arg2="0.31232044"
       inkscape:flatsided="false"
       inkscape:rounded="0.03"
       inkscape:randomized="0"
       d="M 89.651711,25.965261 C 89.865048,26.617753 75.712104,43.292215 75.49546,43.943617 75.275362,44.605405 76.505711,66.775982 75.942235,67.186959 75.387603,67.591486 55.155748,59.283928 54.469281,59.279181 53.771869,59.274359 33.066596,67.295576 32.50161,66.886678 31.945491,66.484197 33.594461,44.675382 33.386846,44.021047 33.17592,43.356278 19.149008,26.143086 19.363303,25.479396 19.574235,24.826122 40.82521,19.655091 41.383363,19.255437 41.950416,18.849409 53.98658,0.18985446 54.684008,0.18856975 55.37049,0.18730521 66.855345,18.800247 67.407918,19.207582 c 0.561384,0.41383 22.027054,6.094783 22.243793,6.757679 z"
       inkscape:transform-center-x="-0.16848548"
       inkscape:transform-center-y="-4.1404792"
       style="fill:#ff7f12;fill-opacity:1;stroke:#000000;stroke-width:0.58575815;stroke-miterlimit:4;stroke-dasharray:none"
       transform="matrix(1.3599825,0,0,1.350198,-21.383094,198.44174)" />
    <path
       style="fill:#b3b3b3;stroke:#000000;stroke-width:0.79374999;stroke-linecap:butt;stroke-linejoin:miter;stroke-miterlimit:4;stroke-dasharray:none;stroke-opacity:1"
       d="m 25.135414,218.9479 -2.645834,2.64583 v 5.29167 l 2.645834,2.64583 h 3.968749 v 44.97917 l 2.645834,2.64583 h 7.9375 L 42.33333,274.5104 C 46.30208,246.72914 68.791663,232.17705 79.375,233.49998 l -3e-6,2.64583 2.64583,2.64583 5.291673,-1e-5 2.64583,-2.64583 v -14.55206 l -2.651888,-2.66012 -7.931445,0.0143 C 58.20833,222.91665 44.979163,236.14581 42.33333,245.40623 v -23.8125 l -2.645833,-2.64583 -14.552083,1e-5"
       id="path18"
       inkscape:connector-curvature="0"
       sodipodi:nodetypes="ccccccccccccccccccccc" />
    <text
       xml:space="preserve"
       style="font-style:normal;font-weight:normal;font-size:10.58333302px;line-height:1.25;font-family:sans-serif;letter-spacing:0px;word-spacing:0px;fill:#b3b3b3;fill-opacity:1;stroke:#000000;stroke-width:0.39687499;stroke-miterlimit:4;stroke-dasharray:none;writing-mode:lr-tb;"
       x="45.987141"
       y="270.75992"
       id="text756"><tspan
         sodipodi:role="line"
         id="tspan754"
         x="45.987141"
         y="270.75992"
         style="font-style:normal;font-variant:normal;font-weight:normal;font-stretch:normal;font-size:19.75555611px;font-family:'Bitstream Vera sans';-inkscape-font-specification:'Bitstream Vera sans';letter-spacing:-1.05833328px;fill:#b3b3b3;stroke:#000000;stroke-width:0.39687499;stroke-miterlimit:4;stroke-dasharray:none;writing-mode:lr-tb;">anger</tspan></text>
  </g>
</svg>
