<?xml version="1.0" encoding="UTF-8" standalone="no"?>
<!-- Created with Inkscape (http://www.inkscape.org/) -->

<svg
   xmlns:dc="http://purl.org/dc/elements/1.1/"
   xmlns:cc="http://creativecommons.org/ns#"
   xmlns:rdf="http://www.w3.org/1999/02/22-rdf-syntax-ns#"
   xmlns:svg="http://www.w3.org/2000/svg"
   xmlns="http://www.w3.org/2000/svg"
   xmlns:sodipodi="http://sodipodi.sourceforge.net/DTD/sodipodi-0.dtd"
   xmlns:inkscape="http://www.inkscape.org/namespaces/inkscape"
   sodipodi:docname="rangerlogo4.svg"
   inkscape:version="0.92.3 (2405546, 2018-03-11)"
   id="svg8"
   version="1.1"
   viewBox="0 0 105.83333 105.83334"
   height="400"
   width="400"
   inkscape:export-filename="/home/hut/rangerlogo4.png"
   inkscape:export-xdpi="96"
   inkscape:export-ydpi="96">
  <defs
     id="defs2" />
  <sodipodi:namedview
     inkscape:window-maximized="1"
     inkscape:window-y="0"
     inkscape:window-x="0"
     inkscape:window-height="1052"
     inkscape:window-width="1920"
     showgrid="true"
     inkscape:current-layer="layer1"
     inkscape:document-units="mm"
     inkscape:cy="126.41975"
     inkscape:cx="73.122502"
     inkscape:zoom="0.98994949"
     inkscape:pageshadow="2"
     inkscape:pageopacity="0.0"
     borderopacity="1.0"
     bordercolor="#666666"
     pagecolor="#ffffff"
     id="base"
     inkscape:snap-bbox="true"
     inkscape:snap-global="true"
     units="px"
     showguides="false">
    <inkscape:grid
       type="xygrid"
       id="grid16" />
  </sodipodi:namedview>
  <metadata
     id="metadata5">
    <rdf:RDF>
      <cc:Work
         rdf:about="">
        <dc:format>image/svg+xml</dc:format>
        <dc:type
           rdf:resource="http://purl.org/dc/dcmitype/StillImage" />
        <dc:title></dc:title>
      </cc:Work>
    </rdf:RDF>
  </metadata>
  <g
     inkscape:label="Layer 1"
     inkscape:groupmode="layer"
     id="layer1"
     transform="translate(0,-191.16665)">
    <path
       sodipodi:type="star"
       id="path10"
       sodipodi:sides="5"
       sodipodi:cx="54.428574"
       sodipodi:cy="37.141373"
       sodipodi:r1="33.416706"
       sodipodi:r2="23.725861"
       sodipodi:arg1="0.94200004"
       sodipodi:arg2="1.5703186"
       inkscape:flatsided="false"
       inkscape:rounded="0.03"
       inkscape:randomized="0"
       d="M 74.083334,64.166669 C 73.600068,64.518135 55.037466,60.866945 54.439908,60.867231 53.84235,60.867516 35.283247,64.536441 34.799645,64.185437 34.316043,63.834432 32.052371,45.052069 31.867444,44.483846 31.682517,43.915623 22.458084,27.398627 22.642468,26.830227 22.826852,26.261828 39.990428,18.304879 40.473694,17.953413 40.956961,17.601946 53.815051,3.7249559 54.412609,3.7246704 55.010166,3.7243849 67.881511,17.589083 68.365113,17.940088 c 0.483602,0.351005 17.654773,8.291549 17.8397,8.859772 0.184927,0.568223 -9.023721,17.094027 -9.208105,17.662426 -0.184384,0.5684 -2.430107,19.352916 -2.913374,19.704383 z"
       inkscape:transform-center-x="-0.16848548"
       inkscape:transform-center-y="-4.1404792"
       style="fill:#ff7f12;stroke:#000000;stroke-width:0.58575815;stroke-miterlimit:4;stroke-dasharray:none;fill-opacity:1"
       transform="matrix(1.3599825,0,0,1.350198,-21.383094,198.44174)" />
    <path
       style="fill:#b3b3b3;stroke:#000000;stroke-width:0.79374999;stroke-linecap:butt;stroke-linejoin:miter;stroke-miterlimit:4;stroke-dasharray:none;stroke-opacity:1"
       d="m 22.489584,218.9479 -2.645834,2.64583 v 5.29167 l 2.645834,2.64583 h 3.968749 v 44.97917 l 2.645834,2.64583 h 7.9375 L 39.6875,274.5104 c 3.96875,-27.78126 26.458333,-42.33335 37.04167,-41.01042 l -3e-6,2.64583 2.64583,2.64583 5.291673,-1e-5 2.64583,-2.64583 v -14.55206 l -2.651888,-2.66012 -7.931445,0.0143 C 55.5625,222.91665 42.333333,236.14581 39.6875,245.40623 v -23.8125 l -2.645833,-2.64583 -14.552083,1e-5"
       id="path18"
       inkscape:connector-curvature="0"
       sodipodi:nodetypes="ccccccccccccccccccccc" />
    <text
       xml:space="preserve"
       style="font-style:normal;font-weight:normal;font-size:10.58333302px;line-height:1.25;font-family:sans-serif;letter-spacing:0px;word-spacing:0px;fill:#b3b3b3;fill-opacity:1;stroke:#000000;stroke-width:0.39687499;stroke-miterlimit:4;stroke-dasharray:none;writing-mode:lr-tb;"
       x="45.987141"
       y="270.75992"
       id="text756"><tspan
         sodipodi:role="line"
         id="tspan754"
         x="45.987141"
         y="270.75992"
         style="font-style:normal;font-variant:normal;font-weight:normal;font-stretch:normal;font-size:19.75555611px;font-family:'Bitstream Vera sans';-inkscape-font-specification:'Bitstream Vera sans';letter-spacing:-1.05833328px;fill:#b3b3b3;stroke:#000000;stroke-width:0.39687499;stroke-miterlimit:4;stroke-dasharray:none;writing-mode:lr-tb;">anger</tspan></text>
  </g>
</svg>
