<?xml version="1.0" encoding="utf-8"?>
<!-- Generator: Adobe Illustrator 16.0.0, SVG Export Plug-In . SVG Version: 6.00 Build 0)  -->
<!DOCTYPE svg PUBLIC "-//W3C//DTD SVG 1.1//EN" "http://www.w3.org/Graphics/SVG/1.1/DTD/svg11.dtd">
<svg version="1.1" id="Ebene_1" xmlns="http://www.w3.org/2000/svg" xmlns:xlink="http://www.w3.org/1999/xlink" x="0px" y="0px"
	 width="779.333px" height="480px" viewBox="0 0 779.333 480" enable-background="new 0 0 779.333 480" xml:space="preserve">
<path fill="#FFFFFF" d="M288.82,114.978c1.488,3.987,2.764,8.034,3.843,12.03c30.063,28.305,48.865,68.443,48.865,112.895
	c0,85.523-69.578,155.102-155.101,155.102c-85.523,0-155.101-69.578-155.101-155.102c0-44.394,18.753-84.485,48.747-112.784
	c1.092-4.014,2.38-8.079,3.885-12.079c-36.079,29.662-59.13,74.62-59.13,124.863c0,89.106,72.493,161.6,161.599,161.6
	c89.105,0,161.599-72.493,161.599-161.6C348.026,189.624,324.942,144.639,288.82,114.978z"/>
<path fill="#FFFFFF" d="M211.476,83.225c2.07,1.326,3.977,2.902,5.771,4.657c10.636,2.153,20.876,5.401,30.606,9.615
	c1.375-1.867,2.52-3.734,3.489-5.565c-14.473-6.374-30.05-10.683-46.358-12.556C206.826,80.351,208.947,81.606,211.476,83.225z"/>
<path fill="#FFFFFF" d="M125.093,97.457c9.704-4.194,19.915-7.429,30.517-9.575c1.794-1.755,3.699-3.331,5.769-4.656
	c2.53-1.619,4.651-2.875,6.493-3.849c-16.292,1.871-31.854,6.173-46.315,12.537C122.539,93.738,123.7,95.599,125.093,97.457z"/>
<path d="M285.693,107.436c-6.472-14.076-16.013-26.335-29.782-31.123c-0.005,0.129-0.019,0.277-0.025,0.412
	c-0.052-0.018-0.103-0.04-0.155-0.058c-0.096,2.798-0.807,6.959-2.701,11.638c-20.392-8.994-42.921-14-66.602-14
	c-23.679,0-46.207,5.006-66.597,13.998c-2.024-4.804-2.789-9.107-2.888-11.989c-12.526,4.355-21.553,14.894-27.954,27.357
	c-0.647,1.248-1.271,2.513-1.866,3.796c-40.228,30.24-66.294,78.35-66.294,132.437c0,91.312,74.287,165.6,165.599,165.6
	s165.599-74.288,165.599-165.6C352.026,185.798,325.943,137.674,285.693,107.436z M186.427,401.502
	c-89.106,0-161.599-72.493-161.599-161.6c0-50.243,23.051-95.202,59.13-124.863c-1.505,4-2.793,8.065-3.885,12.079
	c-29.994,28.299-48.747,68.391-48.747,112.784c0,85.523,69.578,155.102,155.101,155.102c85.522,0,155.101-69.578,155.101-155.102
	c0-44.452-18.803-84.589-48.865-112.895c-1.079-3.996-2.354-8.043-3.843-12.03c36.122,29.661,59.206,74.646,59.206,124.925
	C348.026,329.009,275.533,401.502,186.427,401.502z M130.211,220.359l0.107,1.078l-0.216-0.25l0.618,4.505
	c-0.003-0.011-0.007-0.023-0.01-0.033c0.263,5.001,0.667,9.884,1.099,14.521c-4.182-1.435-7.022-5.192-9.784-14.513
	c-0.942-3.179-1.722-6.105-2.37-8.741C122.963,218.171,126.48,219.318,130.211,220.359z M134.609,233.188
	c1.198-1.396,5.424,2.352,5.424,2.352l-0.008-0.014c2.041,1.843,4.392,3.474,7.051,4.556c9.04,3.677,18.033-1.997,32.283-2.831
	c1.991-0.117,1.375-4.844,6.5-4.844c5.25,0,5.605,5.133,7.75,5.178c12.25,0.25,22.103,6.131,31.033,2.497
	c2.685-1.092,5.097-2.771,7.211-4.681l-0.004,0.006c0,0,4.587-3.615,5.826-2.219c1.052,1.189-0.283,6.615-0.299,6.682
	c-1.738,5.736-3.689,12.14-5.351,17.452c-0.438,1.399-0.922,2.644-1.443,3.755c-0.656,1.398-1.372,2.585-2.129,3.608
	c0.018,0.001,0.035,0.001,0.052,0.002c1.354-1.835,2.578-4.198,3.564-7.353c3.5-11.197,8.295-27.243,9.646-31.662
	c-0.003,0.064-0.008,0.127-0.011,0.191l0.703-4.676l-0.075,0.108v0.204c0,0-0.187,0.043-0.217,0.109l0.217-0.313v-0.858
	c0.187-0.051,0.394-0.104,0.577-0.156l0,0c3.397-0.942,6.423-1.973,9.423-3.081c0,0.001,0,0.001,0,0.002
	c0-0.121,0.613-0.237,0.938-0.36c-0.654,2.656-1.619,5.612-2.57,8.824c-2.826,9.538-5.738,13.249-10.083,14.607
	c-0.903,9.689-1.931,18.284-2.043,24.525c-0.009,0.47-0.042,0.944-0.076,1.418c0.477,0.154,0.939,0.315,1.375,0.496
	c10.329,4.285,18.273,32.25,27.023,46.25s-1.001,8.75-10.854,2.928s-18.146-1.928-20.646,3.206c2.75,15.634,8.75,12.366-5.5,18.366
	s-25.977,31.18-37.25,32.68s-17.75-1.18-27.5-9.93s-26.25-14-33.25-17.5s4.641-7.651,4.5-16.75c-0.166-10.75-23.5-2.928-37.5-4.25
	c-6.25-1.322,6.084-12.333,12.334-19.333s12.916-20.167,14.666-26.167c1.179-4.04,5.524-6.94,8.242-8.408
	c-0.13-1.01-0.217-2.014-0.235-3.006c-0.167-9.243-2.333-23.64-3.147-39.127c0.675,2.207,2.209,7.314,4.012,13.27
	C134.458,237.562,133.795,234.136,134.609,233.188z M330.998,239.904c0-35.693-12.942-68.358-34.38-93.577
	c-0.531-3.739-1.24-7.771-2.153-11.947c26.625,27.254,43.063,64.501,43.063,105.522c0,83.317-67.783,151.102-151.101,151.102
	c-83.317,0-151.101-67.784-151.101-151.102c0-40.952,16.384-78.144,42.931-105.386c-0.923,4.193-1.64,8.241-2.178,11.999
	c-21.343,25.193-34.223,57.783-34.223,93.389c0,79.844,64.728,144.568,144.57,144.568S330.998,319.747,330.998,239.904z
	 M290.707,182.553c-4.585,19.486-50.255,41.281-104.514,41.281c-28.832,0-55.496-5.117-75.078-14.41
	c-22.083-10.479-33.756-25.61-33.756-43.757c0-37.664,12.518-66.101,37.212-84.543c1.212,19.002,20.856,30.376,24.749,31.979
	c-1.426,4.427-11.627,36.468-11.627,46.523c0.101,32.249,38.163,32.249,58.611,32.249c27.918,0,44.801-5.643,53.134-17.759
	c9.217-13.402,6.989-37.729-5.388-59.304c20.391-11.07,23.866-29.733,24.39-33.814C299.194,105.841,294.283,167.351,290.707,182.553
	z M239.053,145.836l-0.321,0.941c-3.222,9.485-9.926,29.223-52.484,29.223c-20.823,0-35.502-4.169-43.629-12.392
	c-5.137-5.198-7.691-12.073-7.593-20.436c0.199-16.925,10.393-35.914,19.062-47.031c6.999-8.979,12.373-14.048,21.965-16.508
	c0.089,0.902,0.451,2.572,1.852,4.054c1.766,1.867,4.573,2.813,8.344,2.813c4.824,0,6.69-1.548,8.19-2.792
	c1.094-0.907,1.958-1.624,3.741-1.624c1.133,0,2.558,0.292,4.355,0.891c11.678,3.894,21.588,15.021,27.188,30.53
	c2.067,5.724,4.101,10.314,5.734,14.002C239.055,135.629,241.038,140.104,239.053,145.836z M221.75,92.981
	c8.097,1.947,15.945,4.538,23.479,7.732c-1.491,1.684-3.153,3.346-5.058,4.948c-4.267-1.709-8.632-3.219-13.087-4.522
	C225.417,98.2,223.652,95.47,221.75,92.981z M145.773,101.138c-4.383,1.282-8.681,2.762-12.88,4.438
	c-1.935-1.59-3.623-3.242-5.137-4.917c7.495-3.17,15.301-5.743,23.352-7.678C149.205,95.469,147.44,98.2,145.773,101.138z
	 M247.853,97.497c-9.73-4.214-19.971-7.462-30.606-9.615c-1.794-1.755-3.7-3.331-5.771-4.657c-2.529-1.619-4.65-2.875-6.492-3.849
	c16.309,1.873,31.886,6.182,46.358,12.556C250.373,93.763,249.228,95.63,247.853,97.497z M161.379,83.225
	c-2.07,1.326-3.975,2.901-5.769,4.656c-10.603,2.146-20.813,5.381-30.517,9.575c-1.394-1.858-2.555-3.719-3.536-5.544
	c14.461-6.364,30.022-10.666,46.315-12.537C166.031,80.351,163.909,81.606,161.379,83.225z"/>
<path fill="#FFFFFF" d="M245.229,100.713c-7.534-3.195-15.383-5.786-23.479-7.732c1.902,2.489,3.668,5.219,5.335,8.158
	c4.455,1.303,8.82,2.813,13.087,4.522C242.076,104.06,243.738,102.397,245.229,100.713z"/>
<path fill="#FFFFFF" d="M200.669,256.696c-0.929-2.225-2.689-0.933-2.709-0.918c0,0.004-0.002,0.008-0.002,0.012
	c0,0,1.777-1.31,2.711,0.928c0.44,1.053,0.924,2.698,1.165,4.361c-0.004-0.037-0.007-0.074-0.011-0.111
	C201.579,259.336,201.103,257.734,200.669,256.696z"/>
<path fill="#FFFFFF" d="M174.537,255.779L174.537,255.779c0,0,0.004-0.186-0.136-0.377c-0.002,0-0.004,0-0.006,0
	C174.53,255.583,174.538,255.754,174.537,255.779z"/>
<path fill="#FFFFFF" d="M132.893,105.576c4.199-1.676,8.497-3.156,12.88-4.438c1.667-2.938,3.432-5.669,5.335-8.158
	c-8.051,1.936-15.856,4.508-23.352,7.678C129.27,102.334,130.958,103.986,132.893,105.576z"/>
<path fill="#FFFFFF" d="M41.857,239.904c0-35.605,12.88-68.195,34.223-93.389c0.538-3.758,1.255-7.806,2.178-11.999
	C51.71,161.759,35.327,198.95,35.327,239.902c0,83.317,67.784,151.102,151.101,151.102c83.317,0,151.101-67.784,151.101-151.102
	c0-41.021-16.438-78.268-43.063-105.522c0.913,4.176,1.622,8.208,2.153,11.947c21.438,25.219,34.38,57.884,34.38,93.577
	c0,79.843-64.728,144.568-144.57,144.568S41.857,319.748,41.857,239.904z"/>
<path fill="#FFFFFF" d="M252.333,217.201c-3,1.108-5.988,2.139-9.387,3.081l0,0c3.396-0.941,6.387-1.972,9.387-3.079
	C252.333,217.202,252.333,217.202,252.333,217.201z"/>
<path d="M160.022,271.944l0.045,0.01c0.717-1.092,1.405-2.52,2.542-3.732c0.348-0.371,0.689-0.705,1.019-1.006
	c-0.388,0.324-0.747,0.656-1.063,0.993C161.427,269.423,160.739,270.852,160.022,271.944z"/>
<path d="M197.96,255.778c0.02-0.015,1.78-1.307,2.709,0.918c0.434,1.038,0.909,2.64,1.154,4.271
	c0.004,0.037,0.007,0.074,0.011,0.111c0.097,0.661,0.158,1.324,0.158,1.956c0,3.415-1.651,3.892-4.552,4.461
	c-2.133,0.418-3.461,2.792-5.117,4.198S187.367,274,186.302,274h-0.111c-1.063,0-4.363-0.899-6.02-2.306s-2.985-3.866-5.117-4.284
	c-2.9-0.569-4.553-1.003-4.553-4.418c0-2.22,0.494-3.874,1.107-5.346c0.933-2.236,2.926-2.068,2.928-2.068
	c0.001-0.025-0.006,0.422-0.143-0.578c0.002,0,0.004,0,0.006,0c-0.183,0-0.616-0.306-1.688-0.18
	c-1.229,0.145-3.125,1.902-4.313,6.371c-0.398,1.5-0.679,2.57-0.842,3.336c-0.201,0.115-0.405,0.258-0.609,0.378
	c0.53-0.244,0.843-0.313,0.843-0.313s0.625,1.693,2.042,2.943s5.833,0.461,9.333,5.419s13.125,2.376,15.268-1.04
	s4.482-4.041,7.232-4.801c2.737-0.756,2.899-2.788,2.901-2.808c-0.267-2.534-1.734-5.736-2.293-7.572
	C201.125,252.952,198.061,253.944,197.96,255.778z"/>
<path fill="#1D1D1B" d="M160.022,271.944c-0.84,1.278-1.722,2.091-3.415,1.53c1.724,0.591,2.613-0.229,3.46-1.521L160.022,271.944z"
	/>
<path fill="#454937" d="M230.859,308.501c-2.923,9.218-16.193,19.195-21.5,29.166c-11.06,20.782-14.265,25.708-21.5,25.708
	c-10.078,0-6.91-2.874-17.357-14.041c-1.518-1.623-10.563-9.075-12.047-11.089c-8.751-11.869,0.07-9.911-16.762-33.244
	c-11.497-15.936-8.457-25.506-5.711-29.731c2.26,6.101,6.217,12.295,11.377,18.134c8.167,9.242,14.666,21.595,20.5,23.95
	c0.734,0.297,1.449,0.538,2.155,0.735c-0.691-0.194-1.393-0.433-2.111-0.723c-5.834-2.355-12.333-14.708-20.5-23.95
	c-7.291-8.25-12.178-17.208-13.265-25.611c-2.717,1.468-7.063,4.368-8.242,8.408c-1.75,6-8.416,19.167-14.666,26.167
	s-18.584,18.011-12.334,19.333c14,1.322,37.334-6.5,37.5,4.25c0.141,9.099-11.5,13.25-4.5,16.75s23.5,8.75,33.25,17.5
	s16.227,11.43,27.5,9.93s23-26.68,37.25-32.68s8.25-2.732,5.5-18.366c2.5-5.134,10.793-9.028,20.646-3.206
	s19.604,11.072,10.854-2.928s-16.694-41.965-27.023-46.25c-0.436-0.181-0.899-0.342-1.376-0.496
	c-0.174,2.421-0.671,4.894-1.469,7.391C237.69,280.131,236.453,290.857,230.859,308.501z"/>
<path fill="#1D1D1B" d="M217.358,272.694c-1.437,0.902-2.286,1.159-2.86,0.999c0.574,0.186,1.432-0.063,2.904-0.987
	c3.354-2.104,7.651-3.341,11.104-8.02c-0.017-0.001-0.034-0.001-0.052-0.002C225.002,269.355,220.708,270.592,217.358,272.694z"/>
<path fill="#B6987E" d="M147.359,293.403c-5.16-5.839-9.117-12.033-11.377-18.134c-2.746,4.226-5.786,13.796,5.711,29.731
	c16.832,23.333,8.011,21.375,16.762,33.244c1.484,2.014,10.529,9.466,12.047,11.089c10.447,11.167,7.279,14.041,17.357,14.041
	c7.235,0,10.44-4.926,21.5-25.708c5.307-9.971,18.577-19.948,21.5-29.166c5.594-17.644,6.831-28.37,6.169-34.894
	c-2.123,6.637-6.326,13.435-11.958,19.809c-8.168,9.242-14.668,21.595-20.5,23.95c-5.834,2.356-10.502,1.29-18.334,1.29
	c-6.868,0-11.302,0.818-16.222-0.567c-0.706-0.197-1.421-0.438-2.155-0.735C162.025,314.998,155.526,302.646,147.359,293.403z"/>
<path fill="#B6987E" d="M122.026,225.667c2.762,9.32,5.603,13.078,9.784,14.513c-0.432-4.637-0.836-9.52-1.099-14.521
	c0.003,0.01,0.007,0.022,0.01,0.033l-0.618-4.505l0.216,0.25l-0.107-1.078c-3.731-1.041-7.248-2.188-10.556-3.434
	C120.304,219.562,121.083,222.488,122.026,225.667z"/>
<path fill="#B6987E" d="M242.117,221.609c0.03-0.066,0.217-0.109,0.217-0.109v-0.204L242.117,221.609z"/>
<path fill="#B6987E" d="M240.609,240.274c4.345-1.358,7.247-5.069,10.073-14.607c0.951-3.212,1.898-6.168,2.552-8.824
	c-0.324,0.123-0.649,0.239-0.974,0.36c-2.974,1.107-5.99,2.138-9.386,3.079c-0.184,0.051-0.354,0.105-0.541,0.156v0.858l0.075-0.108
	l-0.703,4.676C241.441,230.827,241.039,235.672,240.609,240.274z"/>
<path fill="#1D1D1B" d="M181.222,239.875c0,0-0.015,0.088-0.035,0.215c0.008,0.04,0.018,0.097,0.031,0.17
	C181.221,240.02,181.222,239.875,181.222,239.875z"/>
<path fill="#1D1D1B" d="M179.195,249.267c-0.07,0.2-0.141,0.386-0.211,0.546c-0.14,0.32-0.255,0.645-0.352,0.972
	c0.088-0.277,0.186-0.554,0.305-0.826C179.022,249.762,179.109,249.522,179.195,249.267z"/>
<path fill="#1D1D1B" d="M190.835,239.875c0,0,0,0.096,0.002,0.261c0.029,0.07,0.07,0.17,0.125,0.301
	C190.883,240.09,190.835,239.875,190.835,239.875z"/>
<path fill="#1D1D1B" d="M189.373,268.605c0.114-0.336,0.314-0.813,0.531-1.49C189.672,267.813,189.465,268.289,189.373,268.605z"/>
<path fill="#5B4129" d="M234.05,114.812c12.377,21.575,14.604,45.902,5.388,59.304c-8.333,12.116-25.216,17.759-53.134,17.759
	c-20.448,0-58.511,0-58.611-32.249c0-10.055,10.201-42.097,11.627-46.523c-3.893-1.603-23.537-12.977-24.749-31.979
	c-24.694,18.442-37.212,46.879-37.212,84.543c0,18.146,11.673,33.277,33.756,43.757c19.582,9.293,46.246,14.41,75.078,14.41
	c54.259,0,99.929-21.795,104.514-41.281c3.576-15.202,8.487-76.711-32.267-101.555C257.917,85.079,254.441,103.742,234.05,114.812z"
	/>
<path fill="#5B4129" d="M235.457,127.506c-1.634-3.688-3.667-8.279-5.734-14.002c-5.6-15.509-15.51-26.636-27.188-30.53
	c-1.798-0.599-3.223-0.891-4.355-0.891c-1.783,0-2.647,0.717-3.741,1.624c-1.5,1.244-3.366,2.792-8.19,2.792
	c-3.771,0-6.578-0.946-8.344-2.813c-1.4-1.481-1.763-3.151-1.852-4.054c-9.592,2.46-14.966,7.529-21.965,16.508
	c-8.669,11.118-18.862,30.106-19.062,47.031c-0.099,8.363,2.456,15.238,7.593,20.436c8.127,8.223,22.806,12.392,43.629,12.392
	c42.559,0,49.263-19.738,52.484-29.223l0.321-0.941C241.038,140.104,239.055,135.629,235.457,127.506z M160.761,129.58
	c0-1.486,1.209-2.695,2.695-2.695s2.695,1.209,2.695,2.695s-1.209,2.695-2.695,2.695S160.761,131.066,160.761,129.58z
	 M169.371,156.43c0-1.486,1.209-2.695,2.695-2.695s2.695,1.209,2.695,2.695s-1.209,2.695-2.695,2.695
	S169.371,157.916,169.371,156.43z M172.784,152.807l2.068-12.061l-8.78-8.559c0.666-0.668,1.08-1.59,1.08-2.607
	c0-0.162-0.027-0.316-0.049-0.472l12.101-1.758l5.415-10.97c0.494,0.245,1.041,0.395,1.629,0.395s1.136-0.15,1.629-0.395
	l5.415,10.97l12.1,1.758c-0.021,0.156-0.048,0.311-0.048,0.472c0,1.017,0.413,1.938,1.08,2.607l-8.78,8.559l2.066,12.052
	c-1.146,0.2-2.1,0.928-2.624,1.924l-10.838-5.697l-10.905,5.732C174.835,153.768,173.907,153.029,172.784,152.807z M183.552,113.079
	c0-1.486,1.209-2.695,2.695-2.695s2.695,1.209,2.695,2.695s-1.209,2.695-2.695,2.695S183.552,114.565,183.552,113.079z
	 M206.343,129.58c0-1.486,1.209-2.695,2.695-2.695c1.485,0,2.694,1.209,2.694,2.695s-1.209,2.695-2.694,2.695
	C207.552,132.275,206.343,131.066,206.343,129.58z M203.038,156.43c0,1.486-1.209,2.695-2.694,2.695
	c-1.486,0-2.695-1.209-2.695-2.695s1.209-2.695,2.695-2.695C201.829,153.734,203.038,154.943,203.038,156.43z"/>
<path fill="#9F9F9F" d="M197.085,154.723c0.524-0.996,1.479-1.725,2.624-1.924l-2.066-12.052l8.78-8.559
	c-0.667-0.669-1.08-1.591-1.08-2.607c0-0.162,0.027-0.316,0.048-0.472l-12.1-1.758l-5.415-10.97
	c-0.493,0.245-1.041,0.395-1.629,0.395s-1.135-0.15-1.629-0.395l-5.415,10.97l-12.101,1.758c0.021,0.156,0.049,0.311,0.049,0.472
	c0,1.017-0.414,1.938-1.08,2.607l8.78,8.559l-2.068,12.061c1.123,0.222,2.052,0.96,2.559,1.951l10.905-5.732L197.085,154.723z"/>
<circle fill="#9F9F9F" cx="186.248" cy="113.079" r="2.695"/>
<circle fill="#9F9F9F" cx="209.039" cy="129.58" r="2.695"/>
<circle fill="#9F9F9F" cx="163.457" cy="129.58" r="2.695"/>
<path fill="#9F9F9F" d="M197.648,156.43c0,1.486,1.209,2.695,2.695,2.695c1.485,0,2.694-1.209,2.694-2.695s-1.209-2.695-2.694-2.695
	C198.857,153.734,197.648,154.943,197.648,156.43z"/>
<circle fill="#9F9F9F" cx="172.066" cy="156.43" r="2.695"/>
<path d="M182.675,268.896c2.574,1-0.313-2.625-0.5-7.188s-1.375-8.313-0.688-12.5c0.598-3.646-0.084-7.908-0.27-8.948
	c-0.014-0.073-0.023-0.13-0.031-0.17c-0.008-0.044-0.014-0.07-0.014-0.07s-0.993,6.33-1.979,9.247
	c-0.086,0.256-0.173,0.495-0.258,0.691c-0.119,0.272-0.217,0.549-0.305,0.826c-0.697,2.206-0.424,4.58,0.742,7.299
	C180.687,261.145,180.099,267.896,182.675,268.896z"/>
<path d="M192.625,265.521c0-2.188,0.25-6.274,1.313-10.799c1.063-4.525,0.188-5.727-0.438-7.727
	c-0.517-1.652-2.026-5.328-2.537-6.56c-0.055-0.131-0.096-0.23-0.125-0.301c-0.028-0.068-0.049-0.116-0.049-0.116s0,5,0.688,9.188
	s-0.5,7.938-0.688,12.5c-0.106,2.552-0.518,4.263-0.885,5.407c-0.217,0.678-0.417,1.154-0.531,1.49
	c-0.038,0.111-0.068,0.209-0.084,0.291C190.701,269.646,192.625,267.708,192.625,265.521z"/>
<path fill="#9B4827" d="M133.902,264.799c0.018,0.992,0.105,1.996,0.235,3.006c1.086,8.403,5.974,17.361,13.265,25.611
	c8.167,9.242,14.666,21.595,20.5,23.95c0.719,0.29,1.42,0.528,2.111,0.723c4.92,1.386,9.354,0.567,16.222,0.567
	c7.832,0,12.5,1.066,18.334-1.29c5.832-2.355,12.332-14.708,20.5-23.95c5.632-6.374,9.835-13.172,11.958-19.809
	c0.798-2.497,1.295-4.97,1.469-7.391c0.034-0.474,0.064-0.948,0.073-1.418c0.112-6.241,1.136-14.836,2.039-24.525
	c0.43-4.602,0.832-9.447,1.097-14.411c0.003-0.064,0.008-0.127,0.011-0.191c-1.352,4.419-6.146,20.465-9.646,31.662
	c-0.986,3.154-2.21,5.518-3.564,7.353c-3.452,4.679-7.75,5.915-11.104,8.02c-1.473,0.925-2.33,1.173-2.904,0.987
	c-1.29-0.359-1.179-2.838-3.14-4.929c-1.497-1.597-4.389-3.248-6.789-4.457v-0.001c-0.002,0.02-0.164,2.053-2.901,2.809
	c-2.75,0.76-5.09,1.386-7.232,4.802s-11.768,5.999-15.268,1.041s-7.917-4.166-9.333-5.416s-2.042-2.937-2.042-2.937
	s-0.313,0.081-0.843,0.325c-1.15,0.679-2.331,1.457-3.32,2.285c-0.33,0.301-0.671,0.635-1.019,1.006
	c-1.138,1.213-1.825,2.641-2.542,3.732c-0.847,1.292-1.736,2.111-3.46,1.521c-0.012-0.004-0.021-0.005-0.033-0.009
	c-0.454-0.154-0.964-0.406-1.548-0.772c-4.667-2.93-11.167-4.176-14.667-15.372c-1.693-5.419-3.689-11.971-5.453-17.793
	c0-0.001-0.058-0.229-0.139-0.587c-1.803-5.955-3.337-11.063-4.012-13.27C131.569,241.159,133.735,255.556,133.902,264.799z
	 M167.912,286.951c-0.303-0.081-0.475-0.125-0.475-0.125s0.81-0.1,2.009-0.093c0.382,0.003,0.803,0.016,1.251,0.046
	c0.12-0.001,0.238,0.005,0.357,0.006c1.521,0.005,3.018,0.156,4.133,0.624c3.5,1.467,12.25,2.266,18.375,0
	c6.125-2.267,12.641,0.601,12.641,0.601c-3.047-0.201-6.516,2.016-9.516,2.827s-4.438,2.25-10.736,2.25s-5.951,0.625-9.826-0.875
	s-11.688-4.737-11.688-4.737S165.945,287.159,167.912,286.951z"/>
<path fill="#AA6459" d="M176.125,292.212c3.875,1.5,3.527,0.875,9.826,0.875s7.736-1.438,10.736-2.25s6.469-3.028,9.516-2.827
	c0,0-6.516-2.867-12.641-0.601c-6.125,2.266-14.875,1.467-18.375,0c-1.115-0.468-2.612-0.619-4.133-0.624
	c-0.119-0.001-0.237-0.007-0.357-0.006c-0.448-0.03-0.869-0.043-1.251-0.046c-1.199-0.007-2.009,0.093-2.009,0.093
	s0.172,0.044,0.475,0.125c-1.967,0.208-3.475,0.523-3.475,0.523S172.25,290.712,176.125,292.212z"/>
<path fill="#B6987E" d="M140.359,257.321c3.5,11.196,10,12.442,14.667,15.372c0.583,0.366,1.094,0.618,1.548,0.772
	c0.012,0.004,0.021,0.005,0.033,0.009c1.693,0.561,2.575-0.252,3.415-1.53c0.717-1.093,1.405-2.521,2.544-3.735
	c0.315-0.337,0.674-0.669,1.063-0.993c0.989-0.828,2.17-1.606,3.32-2.285c0.205-0.12,0.408-0.238,0.609-0.353
	c0.163-0.766,0.443-1.786,0.842-3.286c1.188-4.469,3.084-6.126,4.313-6.271c1.072-0.126,1.505,0.132,1.688,0.381
	c0.14,0.191,0.136,0.377,0.136,0.377l0,0c-0.002,0-1.995-0.369-2.928,1.867c-0.613,1.472-1.107,3.126-1.107,5.346
	c0,3.415,1.652,3.849,4.553,4.418c2.132,0.418,3.461,2.878,5.117,4.284s4.956,2.306,6.02,2.306h0.111
	c1.064,0,4.365-0.899,6.021-2.306s2.984-3.78,5.117-4.198c2.9-0.569,4.552-1.046,4.552-4.461c0-0.632-0.062-1.295-0.158-1.956
	c-0.241-1.663-0.725-3.309-1.165-4.361c-0.934-2.237-2.711-0.928-2.711-0.928c0-0.004,0.002-0.008,0.002-0.012
	c0.101-1.834,3.164-2.826,4.315,0.956c0.559,1.836,2.026,5.038,2.293,7.572v0.001c2.4,1.209,5.292,2.86,6.789,4.457
	c1.961,2.091,1.85,4.569,3.14,4.929c0.574,0.16,1.424-0.097,2.86-0.999c3.351-2.103,7.645-3.339,11.096-8.01
	c0.757-1.023,1.473-2.21,2.129-3.608c0.521-1.111,1.006-2.355,1.443-3.755c1.661-5.313,3.612-11.716,5.351-17.452
	c0.016-0.066,1.351-5.492,0.299-6.682c-1.239-1.396-5.826,2.219-5.826,2.219l0.004-0.006c-2.114,1.909-4.526,3.589-7.211,4.681
	c-8.931,3.634-18.783-2.247-31.033-2.497c-2.145-0.045-2.5-5.178-7.75-5.178c-5.125,0-4.509,4.727-6.5,4.844
	c-14.25,0.834-23.243,6.508-32.283,2.831c-2.659-1.082-5.01-2.713-7.051-4.556l0.008,0.014c0,0-4.226-3.748-5.424-2.352
	c-0.814,0.949-0.151,4.375,0.158,5.754c0.081,0.358,0.138,0.585,0.139,0.587C136.669,245.351,138.666,251.902,140.359,257.321z
	 M189.373,268.605c0.093-0.316,0.3-0.792,0.531-1.49c0.367-1.145,0.778-2.855,0.885-5.407c0.188-4.562,1.375-8.312,0.688-12.5
	s-0.688-9.188-0.688-9.188s0.021,0.048,0.049,0.116c-0.002-0.165-0.002-0.261-0.002-0.261s0.048,0.215,0.127,0.562
	c0.511,1.231,2.021,4.907,2.537,6.56c0.625,2,1.5,3.201,0.438,7.727c-1.063,4.524-1.313,8.611-1.313,10.799
	c0,2.187-1.924,4.125-3.336,3.375C189.304,268.814,189.334,268.717,189.373,268.605z M178.632,250.784
	c0.097-0.327,0.212-0.651,0.352-0.972c0.07-0.16,0.141-0.346,0.211-0.546c0.985-2.917,1.979-9.247,1.979-9.247
	s0.006,0.026,0.014,0.07c0.021-0.127,0.035-0.215,0.035-0.215s-0.001,0.145-0.004,0.385c0.186,1.04,0.867,5.302,0.27,8.948
	c-0.688,4.187,0.5,7.937,0.688,12.5s3.074,8.188,0.5,7.188c-2.576-1-1.988-7.752-3.301-10.813
	C178.208,255.364,177.935,252.99,178.632,250.784z"/>
<path fill="#FFFFFF" d="M684.82,114.978c1.488,3.987,2.764,8.034,3.843,12.03c30.063,28.305,48.865,68.443,48.865,112.895
	c0,85.523-69.578,155.102-155.101,155.102c-85.523,0-155.101-69.578-155.101-155.102c0-44.394,18.753-84.485,48.747-112.784
	c1.092-4.014,2.38-8.079,3.885-12.079c-36.079,29.662-59.13,74.62-59.13,124.863c0,89.106,72.493,161.6,161.599,161.6
	s161.599-72.493,161.599-161.6C744.026,189.624,720.942,144.639,684.82,114.978z"/>
<path fill="#FFFFFF" d="M607.476,83.225c2.07,1.326,3.977,2.902,5.771,4.657c10.636,2.153,20.876,5.401,30.606,9.615
	c1.375-1.867,2.52-3.734,3.489-5.565c-14.473-6.374-30.05-10.683-46.358-12.556C602.826,80.351,604.947,81.606,607.476,83.225z"/>
<path fill="#FFFFFF" d="M521.093,97.457c9.703-4.194,19.914-7.429,30.518-9.575c1.793-1.755,3.698-3.331,5.769-4.656
	c2.53-1.619,4.651-2.875,6.493-3.849c-16.293,1.871-31.854,6.173-46.315,12.537C518.539,93.738,519.7,95.599,521.093,97.457z"/>
<path d="M681.693,107.436c-6.472-14.076-16.013-26.335-29.782-31.123c-0.005,0.129-0.019,0.277-0.025,0.412
	c-0.052-0.018-0.103-0.04-0.155-0.058c-0.096,2.798-0.807,6.959-2.701,11.638c-20.392-8.994-42.921-14-66.602-14
	c-23.679,0-46.207,5.006-66.597,13.998c-2.024-4.804-2.789-9.107-2.888-11.989c-12.526,4.355-21.553,14.894-27.954,27.357
	c-0.647,1.248-1.271,2.513-1.866,3.796c-40.228,30.24-66.294,78.35-66.294,132.437c0,91.312,74.287,165.6,165.599,165.6
	s165.599-74.288,165.599-165.6C748.026,185.798,721.943,137.674,681.693,107.436z M582.427,401.502
	c-89.105,0-161.599-72.493-161.599-161.6c0-50.243,23.051-95.202,59.13-124.863c-1.505,4-2.793,8.065-3.885,12.079
	c-29.994,28.299-48.747,68.391-48.747,112.784c0,85.523,69.577,155.102,155.101,155.102c85.522,0,155.101-69.578,155.101-155.102
	c0-44.452-18.803-84.589-48.865-112.895c-1.079-3.996-2.354-8.043-3.843-12.03c36.122,29.661,59.206,74.646,59.206,124.925
	C744.026,329.009,671.533,401.502,582.427,401.502z M526.211,220.359l0.107,1.078l-0.216-0.25l0.618,4.505
	c-0.003-0.011-0.007-0.023-0.01-0.033c0.263,5.001,0.667,9.884,1.099,14.521c-4.182-1.435-7.022-5.192-9.784-14.513
	c-0.942-3.179-1.722-6.105-2.37-8.741C518.963,218.171,522.48,219.318,526.211,220.359z M530.609,233.188
	c1.198-1.396,5.424,2.352,5.424,2.352l-0.008-0.014c2.041,1.843,4.392,3.474,7.051,4.556c9.04,3.677,18.033-1.997,32.283-2.831
	c1.991-0.117,1.375-4.844,6.5-4.844c5.25,0,5.605,5.133,7.75,5.178c12.25,0.25,22.103,6.131,31.033,2.497
	c2.685-1.092,5.097-2.771,7.211-4.681l-0.004,0.006c0,0,4.587-3.615,5.826-2.219c1.052,1.189-0.283,6.615-0.299,6.682
	c-1.738,5.736-3.689,12.14-5.351,17.452c-0.438,1.399-0.922,2.644-1.443,3.755c-0.656,1.398-1.372,2.585-2.129,3.608
	c0.018,0.001,0.035,0.001,0.052,0.002c1.354-1.835,2.578-4.198,3.564-7.353c3.5-11.197,8.295-27.243,9.646-31.662
	c-0.003,0.064-0.008,0.127-0.011,0.191l0.703-4.676l-0.075,0.108v0.204c0,0-0.187,0.043-0.217,0.109l0.217-0.313v-0.858
	c0.187-0.051,0.394-0.104,0.577-0.156l0,0c3.397-0.942,6.423-1.973,9.423-3.081c0,0.001,0,0.001,0,0.002
	c0-0.121,0.613-0.237,0.938-0.36c-0.654,2.656-1.619,5.612-2.57,8.824c-2.826,9.538-5.738,13.249-10.083,14.607
	c-0.903,9.689-1.931,18.284-2.043,24.525c-0.009,0.47-0.042,0.944-0.076,1.418c0.477,0.154,0.939,0.315,1.375,0.496
	c10.329,4.285,18.273,32.25,27.023,46.25s-1.001,8.75-10.854,2.928s-18.146-1.928-20.646,3.206c2.75,15.634,8.75,12.366-5.5,18.366
	s-25.977,31.18-37.25,32.68s-17.75-1.18-27.5-9.93s-26.25-14-33.25-17.5s4.641-7.651,4.5-16.75c-0.166-10.75-23.5-2.928-37.5-4.25
	c-6.25-1.322,6.084-12.333,12.334-19.333s12.916-20.167,14.666-26.167c1.179-4.04,5.524-6.94,8.242-8.408
	c-0.131-1.01-0.218-2.014-0.236-3.006c-0.166-9.243-2.332-23.64-3.146-39.127c0.675,2.207,2.209,7.314,4.012,13.27
	C530.458,237.562,529.794,234.136,530.609,233.188z M726.998,239.904c0-35.693-12.942-68.358-34.38-93.577
	c-0.531-3.739-1.24-7.771-2.153-11.947c26.625,27.254,43.063,64.501,43.063,105.522c0,83.317-67.783,151.102-151.101,151.102
	c-83.316,0-151.101-67.784-151.101-151.102c0-40.952,16.384-78.144,42.931-105.386c-0.923,4.193-1.64,8.241-2.178,11.999
	c-21.343,25.193-34.223,57.783-34.223,93.389c0,79.844,64.728,144.568,144.57,144.568S726.998,319.747,726.998,239.904z
	 M686.707,182.553c-4.585,19.486-50.255,41.281-104.514,41.281c-28.832,0-55.496-5.117-75.078-14.41
	c-22.083-10.479-33.756-25.61-33.756-43.757c0-37.664,12.518-66.101,37.212-84.543c1.212,19.002,20.856,30.376,24.749,31.979
	c-1.426,4.427-11.627,36.468-11.627,46.523c0.101,32.249,38.163,32.249,58.611,32.249c27.918,0,44.801-5.643,53.134-17.759
	c9.217-13.402,6.989-37.729-5.388-59.304c20.391-11.07,23.866-29.733,24.39-33.814C695.194,105.841,690.283,167.351,686.707,182.553
	z M635.053,145.836l-0.321,0.941c-3.222,9.485-9.926,29.223-52.484,29.223c-20.823,0-35.502-4.169-43.629-12.392
	c-5.137-5.198-7.691-12.073-7.593-20.436c0.199-16.925,10.393-35.914,19.062-47.031c6.999-8.979,12.373-14.048,21.965-16.508
	c0.089,0.902,0.451,2.572,1.852,4.054c1.766,1.867,4.573,2.813,8.344,2.813c4.824,0,6.69-1.548,8.19-2.792
	c1.094-0.907,1.958-1.624,3.741-1.624c1.133,0,2.558,0.292,4.355,0.891c11.678,3.894,21.588,15.021,27.188,30.53
	c2.067,5.724,4.101,10.314,5.734,14.002C635.055,135.629,637.038,140.104,635.053,145.836z M617.75,92.981
	c8.097,1.947,15.945,4.538,23.479,7.732c-1.491,1.684-3.153,3.346-5.058,4.948c-4.267-1.709-8.632-3.219-13.087-4.522
	C621.417,98.2,619.652,95.47,617.75,92.981z M541.773,101.138c-4.383,1.282-8.681,2.762-12.88,4.438
	c-1.935-1.59-3.623-3.242-5.137-4.917c7.495-3.17,15.301-5.743,23.352-7.678C545.205,95.469,543.44,98.2,541.773,101.138z
	 M643.853,97.497c-9.73-4.214-19.971-7.462-30.606-9.615c-1.794-1.755-3.7-3.331-5.771-4.657c-2.529-1.619-4.65-2.875-6.492-3.849
	c16.309,1.873,31.886,6.182,46.358,12.556C646.373,93.763,645.228,95.63,643.853,97.497z M557.379,83.225
	c-2.07,1.326-3.976,2.901-5.769,4.656c-10.604,2.146-20.814,5.381-30.518,9.575c-1.394-1.858-2.555-3.719-3.536-5.544
	c14.461-6.364,30.022-10.666,46.315-12.537C562.031,80.351,559.91,81.606,557.379,83.225z"/>
<path fill="#FFFFFF" d="M641.229,100.713c-7.534-3.195-15.383-5.786-23.479-7.732c1.902,2.489,3.668,5.219,5.335,8.158
	c4.455,1.303,8.82,2.813,13.087,4.522C638.076,104.06,639.738,102.397,641.229,100.713z"/>
<path fill="#FFFFFF" d="M596.669,256.696c-0.929-2.225-2.689-0.933-2.709-0.918c0,0.004-0.002,0.008-0.002,0.012
	c0,0,1.777-1.31,2.711,0.928c0.44,1.053,0.924,2.698,1.165,4.361c-0.004-0.037-0.007-0.074-0.011-0.111
	C597.579,259.336,597.103,257.734,596.669,256.696z"/>
<path fill="#FFFFFF" d="M570.537,255.779L570.537,255.779c0,0,0.004-0.186-0.137-0.377c-0.002,0-0.004,0-0.006,0
	C570.531,255.583,570.538,255.754,570.537,255.779z"/>
<path fill="#FFFFFF" d="M528.893,105.576c4.199-1.676,8.497-3.156,12.88-4.438c1.667-2.938,3.432-5.669,5.335-8.158
	c-8.051,1.936-15.856,4.508-23.352,7.678C525.27,102.334,526.958,103.986,528.893,105.576z"/>
<path fill="#FFFFFF" d="M437.857,239.904c0-35.605,12.88-68.195,34.223-93.389c0.538-3.758,1.255-7.806,2.178-11.999
	c-26.547,27.242-42.931,64.434-42.931,105.386c0,83.317,67.784,151.102,151.101,151.102c83.317,0,151.101-67.784,151.101-151.102
	c0-41.021-16.438-78.268-43.063-105.522c0.913,4.176,1.622,8.208,2.153,11.947c21.438,25.219,34.38,57.884,34.38,93.577
	c0,79.843-64.728,144.568-144.57,144.568S437.857,319.748,437.857,239.904z"/>
<path fill="#FFFFFF" d="M648.333,217.201c-3,1.108-5.988,2.139-9.387,3.081l0,0c3.396-0.941,6.387-1.972,9.387-3.079
	C648.333,217.202,648.333,217.202,648.333,217.201z"/>
<path d="M556.022,271.944l0.045,0.01c0.718-1.092,1.405-2.52,2.542-3.732c0.349-0.371,0.689-0.705,1.02-1.006
	c-0.389,0.324-0.747,0.656-1.063,0.993C557.427,269.423,556.74,270.852,556.022,271.944z"/>
<path d="M593.96,255.778c0.02-0.015,1.78-1.307,2.709,0.918c0.434,1.038,0.909,2.64,1.154,4.271
	c0.004,0.037,0.007,0.074,0.011,0.111c0.097,0.661,0.158,1.324,0.158,1.956c0,3.415-1.651,3.892-4.552,4.461
	c-2.133,0.418-3.461,2.792-5.117,4.198S583.367,274,582.302,274h-0.111c-1.063,0-4.363-0.899-6.02-2.306s-2.985-3.866-5.117-4.284
	c-2.9-0.569-4.553-1.003-4.553-4.418c0-2.22,0.494-3.874,1.107-5.346c0.934-2.236,2.926-2.068,2.928-2.068
	c0.001-0.025-0.006,0.422-0.143-0.578c0.002,0,0.004,0,0.006,0c-0.182,0-0.615-0.306-1.688-0.18
	c-1.229,0.145-3.125,1.902-4.313,6.371c-0.398,1.5-0.679,2.57-0.842,3.336c-0.201,0.115-0.404,0.258-0.609,0.378
	c0.53-0.244,0.844-0.313,0.844-0.313s0.625,1.693,2.041,2.943s5.834,0.461,9.334,5.419s13.125,2.376,15.268-1.04
	s4.482-4.041,7.232-4.801c2.737-0.756,2.899-2.788,2.901-2.808c-0.267-2.534-1.734-5.736-2.293-7.572
	C597.125,252.952,594.061,253.944,593.96,255.778z"/>
<path fill="#1D1D1B" d="M556.022,271.944c-0.84,1.278-1.722,2.091-3.415,1.53c1.724,0.591,2.613-0.229,3.46-1.521L556.022,271.944z"
	/>
<path fill="#1D1D1B" d="M626.859,308.501c-2.923,9.218-16.193,19.195-21.5,29.166c-11.06,20.782-14.265,25.708-21.5,25.708
	c-10.078,0-6.91-2.874-17.357-14.041c-1.518-1.623-10.563-9.075-12.047-11.089c-8.751-11.869,0.07-9.911-16.762-33.244
	c-11.497-15.936-8.457-25.506-5.711-29.731c2.26,6.101,6.217,12.295,11.377,18.134c8.167,9.242,14.666,21.595,20.5,23.95
	c0.734,0.297,1.449,0.538,2.154,0.735c-0.691-0.194-1.393-0.433-2.111-0.723c-5.834-2.355-12.332-14.708-20.5-23.95
	c-7.29-8.25-12.178-17.208-13.264-25.611c-2.718,1.468-7.063,4.368-8.242,8.408c-1.75,6-8.416,19.167-14.666,26.167
	s-18.584,18.011-12.334,19.333c14,1.322,37.334-6.5,37.5,4.25c0.141,9.099-11.5,13.25-4.5,16.75s23.5,8.75,33.25,17.5
	s16.227,11.43,27.5,9.93s23-26.68,37.25-32.68s8.25-2.732,5.5-18.366c2.5-5.134,10.793-9.028,20.646-3.206
	s19.604,11.072,10.854-2.928s-16.694-41.965-27.023-46.25c-0.436-0.181-0.899-0.342-1.376-0.496
	c-0.174,2.421-0.671,4.894-1.469,7.391C633.69,280.131,632.453,290.857,626.859,308.501z"/>
<path fill="#1D1D1B" d="M613.358,272.694c-1.437,0.902-2.286,1.159-2.86,0.999c0.574,0.186,1.432-0.063,2.904-0.987
	c3.354-2.104,7.651-3.341,11.104-8.02c-0.017-0.001-0.034-0.001-0.052-0.002C621.002,269.355,616.708,270.592,613.358,272.694z"/>
<path fill="#B6987E" d="M543.359,293.403c-5.16-5.839-9.117-12.033-11.377-18.134c-2.746,4.226-5.786,13.796,5.711,29.731
	c16.832,23.333,8.011,21.375,16.762,33.244c1.484,2.014,10.529,9.466,12.047,11.089c10.447,11.167,7.279,14.041,17.357,14.041
	c7.235,0,10.44-4.926,21.5-25.708c5.307-9.971,18.577-19.948,21.5-29.166c5.594-17.644,6.831-28.37,6.169-34.894
	c-2.123,6.637-6.326,13.435-11.958,19.809c-8.168,9.242-14.668,21.595-20.5,23.95c-5.834,2.356-10.502,1.29-18.334,1.29
	c-6.868,0-11.302,0.818-16.223-0.567c-0.705-0.197-1.42-0.438-2.154-0.735C558.025,314.998,551.526,302.646,543.359,293.403z"/>
<path fill="#B6987E" d="M518.026,225.667c2.762,9.32,5.603,13.078,9.784,14.513c-0.432-4.637-0.836-9.52-1.099-14.521
	c0.003,0.01,0.007,0.022,0.01,0.033l-0.618-4.505l0.216,0.25l-0.107-1.078c-3.731-1.041-7.248-2.188-10.556-3.434
	C516.304,219.562,517.083,222.488,518.026,225.667z"/>
<path fill="#B6987E" d="M638.117,221.609c0.03-0.066,0.217-0.109,0.217-0.109v-0.204L638.117,221.609z"/>
<path fill="#B6987E" d="M636.609,240.274c4.345-1.358,7.247-5.069,10.073-14.607c0.951-3.212,1.898-6.168,2.552-8.824
	c-0.324,0.123-0.649,0.239-0.974,0.36c-2.974,1.107-5.99,2.138-9.386,3.079c-0.184,0.051-0.354,0.105-0.541,0.156v0.858l0.075-0.108
	l-0.703,4.676C637.441,230.827,637.039,235.672,636.609,240.274z"/>
<path fill="#1D1D1B" d="M577.222,239.875c0,0-0.015,0.088-0.035,0.215c0.008,0.04,0.018,0.097,0.031,0.17
	C577.221,240.02,577.222,239.875,577.222,239.875z"/>
<path fill="#1D1D1B" d="M575.195,249.267c-0.07,0.2-0.141,0.386-0.211,0.546c-0.14,0.32-0.255,0.645-0.352,0.972
	c0.088-0.277,0.186-0.554,0.305-0.826C575.022,249.762,575.109,249.522,575.195,249.267z"/>
<path fill="#1D1D1B" d="M586.835,239.875c0,0,0,0.096,0.002,0.261c0.029,0.07,0.07,0.17,0.125,0.301
	C586.883,240.09,586.835,239.875,586.835,239.875z"/>
<path fill="#1D1D1B" d="M585.373,268.605c0.114-0.336,0.314-0.813,0.531-1.49C585.672,267.813,585.465,268.289,585.373,268.605z"/>
<path fill="#50402F" d="M630.05,114.812c12.377,21.575,14.604,45.902,5.388,59.304c-8.333,12.116-25.216,17.759-53.134,17.759
	c-20.448,0-58.511,0-58.611-32.249c0-10.055,10.201-42.097,11.627-46.523c-3.893-1.603-23.537-12.977-24.749-31.979
	c-24.694,18.442-37.212,46.879-37.212,84.543c0,18.146,11.673,33.277,33.756,43.757c19.582,9.293,46.246,14.41,75.078,14.41
	c54.259,0,99.929-21.795,104.514-41.281c3.576-15.202,8.487-76.711-32.267-101.555C653.917,85.079,650.441,103.742,630.05,114.812z"
	/>
<path fill="#50402F" d="M631.457,127.506c-1.634-3.688-3.667-8.279-5.734-14.002c-5.6-15.509-15.51-26.636-27.188-30.53
	c-1.798-0.599-3.223-0.891-4.355-0.891c-1.783,0-2.647,0.717-3.741,1.624c-1.5,1.244-3.366,2.792-8.19,2.792
	c-3.771,0-6.578-0.946-8.344-2.813c-1.4-1.481-1.763-3.151-1.852-4.054c-9.592,2.46-14.966,7.529-21.965,16.508
	c-8.669,11.118-18.862,30.106-19.062,47.031c-0.099,8.363,2.456,15.238,7.593,20.436c8.127,8.223,22.806,12.392,43.629,12.392
	c42.559,0,49.263-19.738,52.484-29.223l0.321-0.941C637.038,140.104,635.055,135.629,631.457,127.506z M556.761,129.58
	c0-1.486,1.209-2.695,2.695-2.695s2.695,1.209,2.695,2.695s-1.209,2.695-2.695,2.695S556.761,131.066,556.761,129.58z
	 M565.371,156.43c0-1.486,1.209-2.695,2.695-2.695s2.695,1.209,2.695,2.695s-1.209,2.695-2.695,2.695
	S565.371,157.916,565.371,156.43z M568.784,152.807l2.068-12.061l-8.78-8.559c0.666-0.668,1.08-1.59,1.08-2.607
	c0-0.162-0.027-0.316-0.049-0.472l12.101-1.758l5.415-10.97c0.494,0.245,1.041,0.395,1.629,0.395s1.136-0.15,1.629-0.395
	l5.415,10.97l12.1,1.758c-0.021,0.156-0.048,0.311-0.048,0.472c0,1.017,0.413,1.938,1.08,2.607l-8.78,8.559l2.066,12.052
	c-1.146,0.2-2.1,0.928-2.624,1.924l-10.838-5.697l-10.905,5.732C570.835,153.768,569.907,153.029,568.784,152.807z M579.552,113.079
	c0-1.486,1.209-2.695,2.695-2.695s2.695,1.209,2.695,2.695s-1.209,2.695-2.695,2.695S579.552,114.565,579.552,113.079z
	 M602.343,129.58c0-1.486,1.209-2.695,2.695-2.695c1.485,0,2.694,1.209,2.694,2.695s-1.209,2.695-2.694,2.695
	C603.552,132.275,602.343,131.066,602.343,129.58z M599.038,156.43c0,1.486-1.209,2.695-2.694,2.695
	c-1.486,0-2.695-1.209-2.695-2.695s1.209-2.695,2.695-2.695C597.829,153.734,599.038,154.943,599.038,156.43z"/>
<path fill="#9F9F9F" d="M593.085,154.723c0.524-0.996,1.479-1.725,2.624-1.924l-2.066-12.052l8.78-8.559
	c-0.667-0.669-1.08-1.591-1.08-2.607c0-0.162,0.027-0.316,0.048-0.472l-12.1-1.758l-5.415-10.97
	c-0.493,0.245-1.041,0.395-1.629,0.395s-1.135-0.15-1.629-0.395l-5.415,10.97l-12.101,1.758c0.021,0.156,0.049,0.311,0.049,0.472
	c0,1.017-0.414,1.938-1.08,2.607l8.78,8.559l-2.068,12.061c1.123,0.222,2.052,0.96,2.559,1.951l10.905-5.732L593.085,154.723z"/>
<circle fill="#9F9F9F" cx="582.248" cy="113.079" r="2.695"/>
<circle fill="#9F9F9F" cx="605.039" cy="129.58" r="2.695"/>
<circle fill="#9F9F9F" cx="559.457" cy="129.58" r="2.695"/>
<path fill="#9F9F9F" d="M593.648,156.43c0,1.486,1.209,2.695,2.695,2.695c1.485,0,2.694-1.209,2.694-2.695s-1.209-2.695-2.694-2.695
	C594.857,153.734,593.648,154.943,593.648,156.43z"/>
<circle fill="#9F9F9F" cx="568.066" cy="156.43" r="2.695"/>
<path d="M578.675,268.896c2.574,1-0.313-2.625-0.5-7.188s-1.375-8.313-0.688-12.5c0.598-3.646-0.084-7.908-0.27-8.948
	c-0.014-0.073-0.023-0.13-0.031-0.17c-0.008-0.044-0.014-0.07-0.014-0.07s-0.993,6.33-1.979,9.247
	c-0.086,0.256-0.173,0.495-0.258,0.691c-0.119,0.272-0.217,0.549-0.305,0.826c-0.697,2.206-0.424,4.58,0.742,7.299
	C576.687,261.145,576.099,267.896,578.675,268.896z"/>
<path d="M588.625,265.521c0-2.188,0.25-6.274,1.313-10.799c1.063-4.525,0.188-5.727-0.438-7.727
	c-0.517-1.652-2.026-5.328-2.537-6.56c-0.055-0.131-0.096-0.23-0.125-0.301c-0.028-0.068-0.049-0.116-0.049-0.116s0,5,0.688,9.188
	s-0.5,7.938-0.688,12.5c-0.106,2.552-0.518,4.263-0.885,5.407c-0.217,0.678-0.417,1.154-0.531,1.49
	c-0.038,0.111-0.068,0.209-0.084,0.291C586.701,269.646,588.625,267.708,588.625,265.521z"/>
<path fill="#724830" d="M529.902,264.799c0.019,0.992,0.105,1.996,0.236,3.006c1.086,8.403,5.974,17.361,13.264,25.611
	c8.168,9.242,14.666,21.595,20.5,23.95c0.719,0.29,1.42,0.528,2.111,0.723c4.921,1.386,9.354,0.567,16.223,0.567
	c7.832,0,12.5,1.066,18.334-1.29c5.832-2.355,12.332-14.708,20.5-23.95c5.632-6.374,9.835-13.172,11.958-19.809
	c0.798-2.497,1.295-4.97,1.469-7.391c0.034-0.474,0.064-0.948,0.073-1.418c0.112-6.241,1.136-14.836,2.039-24.525
	c0.43-4.602,0.832-9.447,1.097-14.411c0.003-0.064,0.008-0.127,0.011-0.191c-1.352,4.419-6.146,20.465-9.646,31.662
	c-0.986,3.154-2.21,5.518-3.564,7.353c-3.452,4.679-7.75,5.915-11.104,8.02c-1.473,0.925-2.33,1.173-2.904,0.987
	c-1.29-0.359-1.179-2.838-3.14-4.929c-1.497-1.597-4.389-3.248-6.789-4.457v-0.001c-0.002,0.02-0.164,2.053-2.901,2.809
	c-2.75,0.76-5.09,1.386-7.232,4.802s-11.768,5.999-15.268,1.041s-7.918-4.166-9.334-5.416s-2.041-2.937-2.041-2.937
	s-0.313,0.081-0.844,0.325c-1.15,0.679-2.331,1.457-3.32,2.285c-0.33,0.301-0.671,0.635-1.02,1.006
	c-1.137,1.213-1.824,2.641-2.542,3.732c-0.847,1.292-1.736,2.111-3.46,1.521c-0.012-0.004-0.021-0.005-0.033-0.009
	c-0.453-0.154-0.965-0.406-1.548-0.772c-4.667-2.93-11.167-4.176-14.667-15.372c-1.693-5.419-3.689-11.971-5.453-17.793
	c0-0.001-0.059-0.229-0.139-0.587c-1.803-5.955-3.337-11.063-4.012-13.27C527.57,241.159,529.736,255.556,529.902,264.799z
	 M563.912,286.951c-0.303-0.081-0.475-0.125-0.475-0.125s0.81-0.1,2.009-0.093c0.382,0.003,0.803,0.016,1.251,0.046
	c0.12-0.001,0.238,0.005,0.357,0.006c1.521,0.005,3.018,0.156,4.133,0.624c3.5,1.467,12.25,2.266,18.375,0
	c6.125-2.267,12.641,0.601,12.641,0.601c-3.047-0.201-6.516,2.016-9.516,2.827s-4.438,2.25-10.736,2.25s-5.951,0.625-9.826-0.875
	s-11.688-4.737-11.688-4.737S561.945,287.159,563.912,286.951z"/>
<path fill="#AA6459" d="M572.125,292.212c3.875,1.5,3.527,0.875,9.826,0.875s7.736-1.438,10.736-2.25s6.469-3.028,9.516-2.827
	c0,0-6.516-2.867-12.641-0.601c-6.125,2.266-14.875,1.467-18.375,0c-1.115-0.468-2.612-0.619-4.133-0.624
	c-0.119-0.001-0.237-0.007-0.357-0.006c-0.448-0.03-0.869-0.043-1.251-0.046c-1.199-0.007-2.009,0.093-2.009,0.093
	s0.172,0.044,0.475,0.125c-1.967,0.208-3.475,0.523-3.475,0.523S568.25,290.712,572.125,292.212z"/>
<path fill="#B6987E" d="M536.359,257.321c3.5,11.196,10,12.442,14.667,15.372c0.583,0.366,1.095,0.618,1.548,0.772
	c0.012,0.004,0.021,0.005,0.033,0.009c1.693,0.561,2.575-0.252,3.415-1.53c0.718-1.093,1.405-2.521,2.544-3.735
	c0.315-0.337,0.674-0.669,1.063-0.993c0.989-0.828,2.17-1.606,3.32-2.285c0.205-0.12,0.408-0.238,0.609-0.353
	c0.163-0.766,0.443-1.786,0.842-3.286c1.188-4.469,3.084-6.126,4.313-6.271c1.072-0.126,1.506,0.132,1.688,0.381
	c0.141,0.191,0.137,0.377,0.137,0.377l0,0c-0.002,0-1.994-0.369-2.928,1.867c-0.613,1.472-1.107,3.126-1.107,5.346
	c0,3.415,1.652,3.849,4.553,4.418c2.132,0.418,3.461,2.878,5.117,4.284s4.956,2.306,6.02,2.306h0.111
	c1.064,0,4.365-0.899,6.021-2.306s2.984-3.78,5.117-4.198c2.9-0.569,4.552-1.046,4.552-4.461c0-0.632-0.062-1.295-0.158-1.956
	c-0.241-1.663-0.725-3.309-1.165-4.361c-0.934-2.237-2.711-0.928-2.711-0.928c0-0.004,0.002-0.008,0.002-0.012
	c0.101-1.834,3.164-2.826,4.315,0.956c0.559,1.836,2.026,5.038,2.293,7.572v0.001c2.4,1.209,5.292,2.86,6.789,4.457
	c1.961,2.091,1.85,4.569,3.14,4.929c0.574,0.16,1.424-0.097,2.86-0.999c3.351-2.103,7.645-3.339,11.096-8.01
	c0.757-1.023,1.473-2.21,2.129-3.608c0.521-1.111,1.006-2.355,1.443-3.755c1.661-5.313,3.612-11.716,5.351-17.452
	c0.016-0.066,1.351-5.492,0.299-6.682c-1.239-1.396-5.826,2.219-5.826,2.219l0.004-0.006c-2.114,1.909-4.526,3.589-7.211,4.681
	c-8.931,3.634-18.783-2.247-31.033-2.497c-2.145-0.045-2.5-5.178-7.75-5.178c-5.125,0-4.509,4.727-6.5,4.844
	c-14.25,0.834-23.243,6.508-32.283,2.831c-2.659-1.082-5.01-2.713-7.051-4.556l0.008,0.014c0,0-4.226-3.748-5.424-2.352
	c-0.814,0.949-0.15,4.375,0.158,5.754c0.08,0.358,0.139,0.585,0.139,0.587C532.669,245.351,534.666,251.902,536.359,257.321z
	 M585.373,268.605c0.093-0.316,0.3-0.792,0.531-1.49c0.367-1.145,0.778-2.855,0.885-5.407c0.188-4.562,1.375-8.312,0.688-12.5
	s-0.688-9.188-0.688-9.188s0.021,0.048,0.049,0.116c-0.002-0.165-0.002-0.261-0.002-0.261s0.048,0.215,0.127,0.562
	c0.511,1.231,2.021,4.907,2.537,6.56c0.625,2,1.5,3.201,0.438,7.727c-1.063,4.524-1.313,8.611-1.313,10.799
	c0,2.187-1.924,4.125-3.336,3.375C585.304,268.814,585.334,268.717,585.373,268.605z M574.632,250.784
	c0.097-0.327,0.212-0.651,0.352-0.972c0.07-0.16,0.141-0.346,0.211-0.546c0.985-2.917,1.979-9.247,1.979-9.247
	s0.006,0.026,0.014,0.07c0.021-0.127,0.035-0.215,0.035-0.215s-0.001,0.145-0.004,0.385c0.186,1.04,0.867,5.302,0.27,8.948
	c-0.688,4.187,0.5,7.937,0.688,12.5s3.074,8.188,0.5,7.188c-2.576-1-1.988-7.752-3.301-10.813
	C574.208,255.364,573.935,252.99,574.632,250.784z"/>
</svg>
