<?xml version="1.0" encoding="utf-8"?>
<!-- Generator: Adobe Illustrator 16.0.0, SVG Export Plug-In . SVG Version: 6.00 Build 0)  -->
<!DOCTYPE svg PUBLIC "-//W3C//DTD SVG 1.1//EN" "http://www.w3.org/Graphics/SVG/1.1/DTD/svg11.dtd">
<svg version="1.1" id="Ebene_1" xmlns="http://www.w3.org/2000/svg" xmlns:xlink="http://www.w3.org/1999/xlink" x="0px" y="0px"
	 width="1173px" height="480px" viewBox="0 0 1173 480" enable-background="new 0 0 1173 480" xml:space="preserve">
<circle fill="#FFFFFF" stroke="#000000" stroke-width="4" stroke-miterlimit="10" cx="223.74" cy="242.903" r="163.599"/>
<circle fill="#FFFFFF" stroke="#000000" stroke-width="4" stroke-miterlimit="10" cx="223.74" cy="242.903" r="153.101"/>
<g>
	<path d="M656.725,260.815c4.524-0.84,5.452,0.253,8.761-8.333c2.59-6.721,6.637-15.762,8.669-20.352
		c28.857-12.448,40.1-32.738,40.1-51.981c0-18.666-8.486-74.666-42.039-86.333c-0.25,7.339-4.711,24.039-23.735,34.901
		c-5.543-12.119-11.682-22.217-20.699-27.989c-13.76-8.808-15.522-6.923-25.048-6.923s-11.289-1.885-25.049,6.923
		c-8.952,5.731-15.066,15.727-20.578,27.728c-19.128-10.724-23.606-27.285-23.857-34.64c-33.553,11.667-42.037,67.667-42.037,86.333
		c0,19.455,11.493,39.979,41.061,52.389c2.084,4.702,5.975,13.419,8.488,19.944c3.074,7.98,4.093,7.599,7.854,8.18
		c0.814,8.354,1.631,15.741,1.73,21.273c0.019,1.017,0.107,2.045,0.244,3.08c-2.723,1.54-6.636,4.333-7.744,8.134
		c-1.75,6-8.416,19.167-14.666,26.167s-18.584,18.011-12.334,19.333c14,1.322,37.334-6.5,37.5,4.25
		c0.141,9.099-11.5,13.25-4.5,16.75s23.5,8.75,33.25,17.5s16.227,11.43,27.5,9.93s23-26.68,37.25-32.68s8.25-2.732,5.5-18.366
		c2.5-5.134,10.793-9.028,20.646-3.206s19.604,11.072,10.854-2.928s-16.694-41.965-27.023-46.25
		c-0.583-0.242-1.209-0.455-1.864-0.648c0.021-0.355,0.048-0.713,0.055-1.065C655.109,276.437,655.916,269.106,656.725,260.815z
		 M646.867,325.499c-1.571,4.955-6.163,10.1-11.025,15.547c-3.94,4.416-8.016,8.981-10.439,13.535
		c-11.147,20.948-14.188,25.443-21.059,25.443c-6.398,0-7.154-1.083-9.968-5.114c-1.458-2.091-3.456-4.954-7.024-8.769
		c-0.611-0.653-2.354-2.178-4.371-3.942c-3.015-2.638-6.768-5.92-7.639-7.102c-3.614-4.902-4.185-7.428-4.845-10.353
		c-0.933-4.132-2.094-9.274-11.914-22.888c-11.154-15.462-8.546-24.698-5.911-28.902c2.29,5.927,6.163,11.93,11.172,17.598
		c8.167,9.242,14.666,21.595,20.5,23.95c5.834,2.356,10.5,1.29,18.334,1.29c7.832,0,12.499,1.066,18.333-1.29
		c5.833-2.355,12.332-14.708,20.5-23.95c5.339-6.043,9.383-12.465,11.599-18.771C653.55,298.274,652.189,308.714,646.867,325.499z
		 M544.178,176.776c0.1,32.248,38.163,32.248,58.611,32.248c27.917,0,44.801-5.643,53.134-17.759
		c9.217-13.402,6.989-37.729-5.388-59.305c20.391-11.069,23.866-29.732,24.39-33.813c40.754,24.844,35.843,86.354,32.267,101.555
		c-4.585,19.486-50.255,41.281-104.514,41.281c-28.832,0-55.495-5.117-75.078-14.41c-22.083-10.479-33.756-25.61-33.756-43.757
		c0-37.664,12.518-66.102,37.212-84.543c1.212,19.002,20.856,30.377,24.749,31.979C554.379,134.68,544.178,166.721,544.178,176.776z
		 M594.389,100.836c1.766,1.867,4.573,2.813,8.344,2.813c4.824,0,6.69-1.548,8.19-2.792c1.094-0.908,1.958-1.625,3.741-1.625
		c1.133,0,2.558,0.292,4.355,0.892c11.678,3.894,21.588,15.021,27.188,30.529c2.067,5.724,4.101,10.313,5.734,14.002
		c3.599,8.123,5.581,12.598,3.597,18.331l-0.321,0.941c-3.222,9.485-9.926,29.223-52.484,29.223
		c-20.823,0-35.502-4.169-43.629-12.393c-5.137-5.197-7.691-12.073-7.593-20.436c0.199-16.926,10.393-35.914,19.062-47.031
		c6.999-8.979,12.373-14.048,21.964-16.509C592.626,97.685,592.988,99.355,594.389,100.836z M613.469,307.337
		c-3,0.813-4.438,2.25-10.736,2.25s-5.951,0.625-9.826-0.875s-11.688-4.736-11.688-4.736s7.25-1.533,10.75-0.066
		s12.25,2.267,18.375,0s12.641,0.601,12.641,0.601C619.937,304.308,616.469,306.524,613.469,307.337z M633.843,289.843
		c-4.666,2.93-3.166-0.908-6-3.93c-1.497-1.597-4.389-3.25-6.789-4.459c-0.266-2.534-1.734-5.74-2.293-7.575
		c-1.154-3.792-4.229-2.792-4.317-0.95c0,0,1.777-1.32,2.711,0.917c0.615,1.472,1.323,4.076,1.323,6.296
		c0,3.415-1.651,3.849-4.552,4.418c-2.133,0.418-3.461,2.706-5.117,4.112s-4.957,2.134-6.021,2.134h-0.111
		c-1.063,0-4.363-0.728-6.02-2.134s-2.985-3.694-5.117-4.112c-2.9-0.569-4.553-1.003-4.553-4.418c0-2.22,0.494-3.874,1.107-5.346
		c0.934-2.237,2.928-1.867,2.928-1.867s0.072-0.981-1.824-0.758c-1.229,0.145-3.125,1.802-4.313,6.271
		c-0.398,1.501-0.68,2.521-0.843,3.287c-1.776,1.005-3.729,2.283-4.991,3.63c-2.834,3.021-2.873,7.414-7.54,4.484
		s-11.167-4.176-14.667-15.372c-1.693-5.419-3.689-11.971-5.453-17.793c-0.002-0.008-1.321-5.146-0.297-6.341
		c1.198-1.396,5.424,2.352,5.424,2.352l-0.008-0.014c2.041,1.843,4.392,3.474,7.051,4.556c9.04,3.677,18.033-1.997,32.283-2.831
		c1.991-0.117,1.375-4.844,6.5-4.844c5.25,0,5.605,5.133,7.75,5.178c12.25,0.25,22.103,6.131,31.033,2.497
		c2.685-1.092,5.097-2.771,7.211-4.681l-0.004,0.006c0,0,4.587-3.615,5.826-2.219c1.052,1.189-0.283,6.615-0.299,6.682
		c-1.738,5.736-3.689,12.14-5.351,17.452C645.011,285.667,638.511,286.913,633.843,289.843z M657.637,250.615
		c0.223-1.501,0.457-3.043,0.713-4.657c0.43-2.708,0.701-5.599,0.856-8.573c3.44-0.972,6.696-2.035,9.773-3.181
		c-0.636,2.567-1.395,5.405-2.303,8.471c-2.758,9.307-5.561,12.897-9.579,14.231C657.288,254.854,657.47,252.751,657.637,250.615z
		 M546.258,237.385c0.154,2.975,0.426,5.865,0.855,8.573c0.171,1.077,0.332,2.121,0.487,3.146c0.194,2.617,0.414,5.188,0.645,7.685
		c-3.846-1.419-6.572-5.062-9.255-14.114c-0.898-3.031-1.65-5.842-2.282-8.388C539.72,235.401,542.901,236.437,546.258,237.385z"/>
	<path d="M598.707,278.712c-0.188-4.563-1.375-8.313-0.688-12.5s-0.313-9.188-0.313-9.188s-1.176,7.5-2.238,9.938
		s-0.875,5.063,0.438,8.125s0.726,9.813,3.301,10.813C601.781,286.899,598.895,283.274,598.707,278.712z"/>
	<path d="M610.031,264c-0.625-2-2.711-6.976-2.711-6.976s0,5,0.688,9.188s-0.5,7.938-0.688,12.5s-1.352,6.438-1.5,7.188
		c1.413,0.75,3.336-1.188,3.336-3.375s0.25-6.274,1.313-10.799S610.656,266,610.031,264z"/>
	<path d="M602.732,133.924c-0.588,0-1.136-0.15-1.629-0.396l-5.415,10.971l-12.1,1.758c0.021,0.156,0.048,0.311,0.048,0.473
		c0,1.017-0.413,1.938-1.08,2.607l8.78,8.559l-2.068,12.061c1.123,0.223,2.052,0.961,2.56,1.951l10.904-5.732l10.838,5.697
		c0.524-0.996,1.479-1.725,2.624-1.924l-2.066-12.053l8.78-8.559c-0.667-0.669-1.08-1.591-1.08-2.607
		c0-0.162,0.027-0.316,0.048-0.473l-12.1-1.758l-5.415-10.971C603.868,133.773,603.32,133.924,602.732,133.924z"/>
	<circle cx="602.732" cy="130.229" r="2.695"/>
	<path d="M628.218,146.729c0-1.486-1.209-2.695-2.694-2.695c-1.486,0-2.695,1.209-2.695,2.695s1.209,2.695,2.695,2.695
		C627.009,149.425,628.218,148.216,628.218,146.729z"/>
	<circle cx="579.941" cy="146.729" r="2.695"/>
	<circle cx="616.828" cy="173.579" r="2.695"/>
	<circle cx="588.551" cy="173.579" r="2.695"/>
</g>
<circle cx="957.74" cy="242.903" r="144.57"/>
<g>
	<g>
		<path fill="none" d="M952.458,243.076c0.008-0.438,0.008-0.701,0.008-0.701s-1.176,7.5-2.238,9.938
			c-0.483,1.108-0.695,2.259-0.673,3.469c0.055-0.975,0.276-1.91,0.673-2.819C951.25,250.617,952.373,243.607,952.458,243.076z"/>
		<path fill="none" d="M962.079,242.375c0,0,0,0.25,0.008,0.668c0.019,0.045,0.137,0.326,0.321,0.773
			C962.211,242.967,962.079,242.375,962.079,242.375z"/>
		<path fill="none" d="M937.315,134.688l8.78,8.559l-2.068,12.061c1.123,0.223,2.052,0.961,2.56,1.951l10.904-5.732l10.838,5.697
			c0.524-0.996,1.479-1.725,2.624-1.924l-2.066-12.053l8.78-8.559c-0.667-0.669-1.08-1.591-1.08-2.607
			c0-0.162,0.027-0.316,0.048-0.473l-12.1-1.758l-5.415-10.971c-0.493,0.245-1.041,0.396-1.629,0.396s-1.136-0.15-1.629-0.396
			l-5.415,10.971l-12.1,1.758c0.021,0.156,0.048,0.311,0.048,0.473C938.396,133.097,937.982,134.019,937.315,134.688z"/>
		<path fill="none" d="M962.966,254.84c-0.079,2.966-0.749,5.876-0.887,9.223c-0.023,0.564-0.04,1.076-0.052,1.542
			c0.021-0.286,0.039-0.582,0.052-0.893C962.227,261.122,962.98,258.033,962.966,254.84z"/>
		<circle fill="none" cx="957.491" cy="115.579" r="2.695"/>
		<circle fill="none" cx="934.7" cy="132.08" r="2.695"/>
		<circle fill="none" cx="980.282" cy="132.08" r="2.695"/>
		<path fill="none" d="M971.587,156.234c-1.486,0-2.695,1.209-2.695,2.695s1.209,2.695,2.695,2.695c1.485,0,2.694-1.209,2.694-2.695
			S973.072,156.234,971.587,156.234z"/>
		<circle fill="none" cx="943.31" cy="158.93" r="2.695"/>
		<path fill="#FFFFFF" d="M996.27,295.903c-8.168,9.242-14.667,21.595-20.5,23.95c-5.834,2.356-10.501,1.29-18.333,1.29
			c-7.834,0-12.5,1.066-18.334-1.29c-5.834-2.355-12.333-14.708-20.5-23.95c-5.009-5.668-8.882-11.671-11.172-17.598
			c-2.635,4.204-5.243,13.44,5.911,28.902c9.82,13.613,10.981,18.756,11.914,22.888c0.66,2.925,1.23,5.45,4.845,10.353
			c0.871,1.182,4.624,4.464,7.639,7.102c2.018,1.765,3.76,3.289,4.371,3.942c3.568,3.814,5.566,6.678,7.024,8.769
			c2.813,4.031,3.569,5.114,9.968,5.114c6.871,0,9.911-4.495,21.059-25.443c2.424-4.554,6.499-9.119,10.439-13.535
			c4.862-5.447,9.454-10.592,11.025-15.547c5.322-16.785,6.683-27.225,6.242-33.717
			C1005.652,283.438,1001.608,289.86,996.27,295.903z"/>
		<path fill="#FFFFFF" d="M901.872,231.309c-0.43-2.708-0.701-5.599-0.855-8.573c-3.356-0.948-6.538-1.983-9.55-3.098
			c0.632,2.546,1.384,5.356,2.282,8.388c2.683,9.053,5.409,12.695,9.255,14.114c-0.23-2.497-0.45-5.067-0.645-7.685
			C902.204,233.43,902.043,232.386,901.872,231.309z"/>
		<path fill="#FFFFFF" d="M1013.108,231.309c-0.256,1.614-0.49,3.156-0.713,4.657c-0.167,2.136-0.349,4.239-0.539,6.291
			c4.019-1.334,6.821-4.925,9.579-14.231c0.908-3.065,1.667-5.903,2.303-8.471c-3.077,1.146-6.333,2.209-9.773,3.181
			C1013.81,225.71,1013.538,228.601,1013.108,231.309z"/>
		<path fill="#FFFFFF" d="M1003.093,237.906l0.004-0.006c-2.114,1.909-4.526,3.589-7.211,4.681
			c-8.931,3.634-18.783-2.247-31.033-2.497c-2.145-0.045-2.5-5.178-7.75-5.178c-5.125,0-4.509,4.727-6.5,4.844
			c-14.25,0.834-23.243,6.508-32.283,2.831c-2.659-1.082-5.01-2.713-7.051-4.556l0.008,0.014c0,0-4.226-3.748-5.424-2.352
			c-1.024,1.195,0.295,6.333,0.297,6.341c1.764,5.822,3.76,12.374,5.453,17.793c3.5,11.196,10,12.442,14.667,15.372
			s4.706-1.463,7.54-4.484c1.263-1.347,3.215-2.625,4.991-3.63c0.163-0.766,0.444-1.786,0.843-3.287
			c1.188-4.469,3.084-6.126,4.313-6.271c1.896-0.224,1.824,0.758,1.824,0.758s-1.994-0.37-2.928,1.867
			c-0.613,1.472-1.107,3.126-1.107,5.346c0,3.415,1.652,3.849,4.553,4.418c2.132,0.418,3.461,2.628,5.117,4.034
			s4.956,2.056,6.02,2.056h0.111c1.064,0,4.365-0.649,6.021-2.056s2.984-3.655,5.117-4.073c2.9-0.569,4.552-0.983,4.552-4.398
			c0-2.22-0.708-4.814-1.323-6.286c-0.934-2.237-2.711-0.912-2.711-0.912c0.088-1.842,3.163-2.839,4.317,0.952
			c0.559,1.836,2.027,5.043,2.293,7.577c2.4,1.209,5.292,2.862,6.789,4.459c2.834,3.021,1.334,6.86,6,3.931
			c4.668-2.93,11.168-4.176,14.668-15.372c1.661-5.313,3.612-11.716,5.351-17.452c0.016-0.066,1.351-5.492,0.299-6.682
			C1007.68,234.291,1003.093,237.906,1003.093,237.906z M953.966,271.899c-2.575-1-1.988-7.75-3.301-10.813
			c-0.823-1.92-1.203-3.668-1.11-5.306c-0.022-1.21,0.189-2.36,0.673-3.469c1.063-2.438,2.238-9.938,2.238-9.938
			s0,0.263-0.008,0.701c0.003-0.021,0.008-0.052,0.008-0.052s1,5,0.313,9.188s0.5,7.938,0.688,12.5S956.54,272.899,953.966,271.899z
			 M965.228,257.726c-1.063,4.524-1.313,8.611-1.313,10.799s-1.923,4.125-3.336,3.375c0.139-0.699,1.158-2.377,1.448-6.295
			c0.012-0.466,0.028-0.978,0.052-1.542c0.138-3.347,0.808-6.257,0.887-9.223c-0.004-0.864-0.053-1.735-0.199-2.628
			c-0.688-4.188-0.688-9.188-0.688-9.188s0.006,0.015,0.008,0.019c-0.008-0.418-0.008-0.668-0.008-0.668s0.132,0.592,0.329,1.441
			c0.612,1.485,1.911,4.678,2.382,6.184C965.415,252,966.29,253.201,965.228,257.726z"/>
		<path fill="#FFFFFF" d="M1029.684,83.498c-0.523,4.081-3.999,22.744-24.39,33.813c12.377,21.576,14.604,45.902,5.388,59.305
			c-8.333,12.116-25.217,17.759-53.134,17.759c-20.448,0-58.512,0-58.611-32.248c0-10.056,10.201-42.097,11.627-46.523
			c-3.893-1.603-23.537-12.978-24.749-31.979c-24.694,18.441-37.212,46.879-37.212,84.543c0,18.146,11.673,33.277,33.756,43.757
			c19.583,9.293,46.246,14.41,75.078,14.41c54.259,0,99.929-21.795,104.514-41.281
			C1065.526,169.852,1070.438,108.342,1029.684,83.498z"/>
		<path fill="#FFFFFF" d="M913.862,166.108c8.127,8.224,22.806,12.393,43.629,12.393c42.559,0,49.263-19.737,52.484-29.223
			l0.321-0.941c1.984-5.733,0.002-10.208-3.597-18.331c-1.634-3.688-3.667-8.278-5.734-14.002
			c-5.6-15.509-15.51-26.636-27.188-30.529c-1.798-0.6-3.223-0.892-4.355-0.892c-1.783,0-2.647,0.717-3.741,1.625
			c-1.5,1.244-3.366,2.792-8.19,2.792c-3.771,0-6.578-0.946-8.344-2.813c-1.4-1.48-1.763-3.151-1.853-4.054
			c-9.591,2.461-14.965,7.53-21.964,16.509c-8.669,11.117-18.862,30.105-19.062,47.031
			C906.171,154.035,908.726,160.911,913.862,166.108z M943.31,161.625c-1.486,0-2.695-1.209-2.695-2.695s1.209-2.695,2.695-2.695
			s2.695,1.209,2.695,2.695S944.796,161.625,943.31,161.625z M971.587,161.625c-1.486,0-2.695-1.209-2.695-2.695
			s1.209-2.695,2.695-2.695c1.485,0,2.694,1.209,2.694,2.695S973.072,161.625,971.587,161.625z M980.282,129.385
			c1.485,0,2.694,1.209,2.694,2.695s-1.209,2.695-2.694,2.695c-1.486,0-2.695-1.209-2.695-2.695S978.796,129.385,980.282,129.385z
			 M957.491,112.884c1.486,0,2.695,1.209,2.695,2.695s-1.209,2.695-2.695,2.695s-2.695-1.209-2.695-2.695
			S956.005,112.884,957.491,112.884z M950.447,129.85l5.415-10.971c0.493,0.245,1.041,0.396,1.629,0.396s1.136-0.15,1.629-0.396
			l5.415,10.971l12.1,1.758c-0.021,0.156-0.048,0.311-0.048,0.473c0,1.017,0.413,1.938,1.08,2.607l-8.78,8.559l2.066,12.053
			c-1.146,0.199-2.1,0.928-2.624,1.924l-10.838-5.697l-10.904,5.732c-0.508-0.99-1.437-1.729-2.56-1.951l2.068-12.061l-8.78-8.559
			c0.667-0.669,1.08-1.591,1.08-2.607c0-0.162-0.027-0.316-0.048-0.473L950.447,129.85z M934.7,129.385
			c1.486,0,2.695,1.209,2.695,2.695s-1.209,2.695-2.695,2.695s-2.695-1.209-2.695-2.695S933.214,129.385,934.7,129.385z"/>
		<path fill="#FFFFFF" d="M947.665,294.712c3.875,1.5,3.527,0.875,9.826,0.875s7.736-1.438,10.736-2.25s6.468-3.029,9.516-2.827
			c0,0-6.516-2.867-12.641-0.601s-14.875,1.467-18.375,0c-1.203-0.504-2.848-0.649-4.49-0.629c-1.855-0.128-3.26,0.046-3.26,0.046
			s0.171,0.044,0.475,0.125c-1.967,0.208-3.475,0.524-3.475,0.524S943.79,293.212,947.665,294.712z"/>
	</g>
	<g>
		<path d="M1011.732,246.312c4.524-0.84,5.452,0.253,8.761-8.333c2.59-6.721,6.637-15.762,8.669-20.352
			c28.857-12.448,40.1-32.738,40.1-51.981c0-18.666-8.486-74.666-42.039-86.333c-0.25,7.339-4.711,24.039-23.735,34.901
			c-5.543-12.119-11.682-22.217-20.699-27.989c-13.76-8.808-15.522-6.923-25.048-6.923s-11.289-1.885-25.049,6.923
			c-8.952,5.731-15.066,15.727-20.578,27.728c-19.128-10.724-23.606-27.285-23.857-34.64
			c-33.553,11.667-42.037,67.667-42.037,86.333c0,19.455,11.493,39.979,41.061,52.389c2.084,4.702,5.975,13.419,8.488,19.944
			c3.074,7.98,4.093,7.598,7.854,8.179c0.814,8.354,1.631,15.741,1.73,21.273c0.019,1.017,0.107,2.045,0.244,3.08
			c-2.723,1.54-6.636,4.333-7.744,8.134c-1.75,6-8.416,19.167-14.666,26.167s-18.584,18.011-12.334,19.333
			c14,1.322,37.334-6.5,37.5,4.25c0.141,9.099-11.5,13.25-4.5,16.75s23.5,8.75,33.25,17.5s16.227,11.43,27.5,9.93
			s23-26.68,37.25-32.68s8.25-2.732,5.5-18.366c2.5-5.134,10.793-9.028,20.646-3.206s19.604,11.072,10.854-2.928
			s-16.694-41.965-27.023-46.25c-0.583-0.242-1.209-0.455-1.864-0.648c0.021-0.355,0.048-0.713,0.055-1.065
			C1010.117,261.933,1010.924,254.603,1011.732,246.312z M1001.875,310.995c-1.571,4.955-6.163,10.1-11.025,15.547
			c-3.94,4.416-8.016,8.981-10.439,13.535c-11.147,20.948-14.188,25.443-21.059,25.443c-6.398,0-7.154-1.083-9.968-5.114
			c-1.458-2.091-3.456-4.954-7.024-8.769c-0.611-0.653-2.354-2.178-4.371-3.942c-3.015-2.638-6.768-5.92-7.639-7.102
			c-3.614-4.902-4.185-7.428-4.845-10.353c-0.933-4.132-2.094-9.274-11.914-22.888c-11.154-15.462-8.546-24.698-5.911-28.902
			c2.29,5.927,6.163,11.93,11.172,17.598c8.167,9.242,14.666,21.595,20.5,23.95c5.834,2.356,10.5,1.29,18.334,1.29
			c7.832,0,12.499,1.066,18.333-1.29c5.833-2.355,12.332-14.708,20.5-23.95c5.339-6.043,9.383-12.465,11.599-18.771
			C1008.558,283.771,1007.197,294.21,1001.875,310.995z M899.186,162.273c0.1,32.248,38.163,32.248,58.611,32.248
			c27.917,0,44.801-5.643,53.134-17.759c9.217-13.402,6.989-37.729-5.388-59.305c20.391-11.069,23.866-29.732,24.39-33.813
			c40.754,24.844,35.843,86.354,32.267,101.555c-4.585,19.486-50.255,41.281-104.514,41.281c-28.832,0-55.495-5.117-75.078-14.41
			c-22.083-10.479-33.756-25.61-33.756-43.757c0-37.664,12.518-66.102,37.212-84.543c1.212,19.002,20.856,30.377,24.749,31.979
			C909.387,120.176,899.186,152.217,899.186,162.273z M949.396,86.333c1.766,1.867,4.573,2.813,8.344,2.813
			c4.824,0,6.69-1.548,8.19-2.792c1.094-0.908,1.958-1.625,3.741-1.625c1.133,0,2.558,0.292,4.355,0.892
			c11.678,3.894,21.588,15.021,27.188,30.529c2.067,5.724,4.101,10.313,5.734,14.002c3.599,8.123,5.581,12.598,3.597,18.331
			l-0.321,0.941c-3.222,9.485-9.926,29.223-52.484,29.223c-20.823,0-35.502-4.169-43.629-12.393
			c-5.137-5.197-7.691-12.073-7.593-20.436c0.199-16.926,10.393-35.914,19.062-47.031c6.999-8.979,12.373-14.048,21.964-16.509
			C947.634,83.181,947.996,84.852,949.396,86.333z M968.477,292.833c-3,0.813-4.438,2.25-10.736,2.25s-5.951,0.625-9.826-0.875
			s-11.688-4.736-11.688-4.736s7.25-1.533,10.75-0.066s12.25,2.267,18.375,0s12.641,0.601,12.641,0.601
			C974.944,289.804,971.477,292.021,968.477,292.833z M988.851,275.339c-4.666,2.93-3.166-0.908-6-3.93
			c-1.497-1.597-4.389-3.25-6.789-4.459c-0.266-2.534-1.734-5.74-2.293-7.575c-1.154-3.792-4.229-2.792-4.317-0.95
			c0,0,1.777-1.32,2.711,0.917c0.615,1.472,1.323,4.076,1.323,6.296c0,3.415-1.651,3.849-4.552,4.418
			c-2.133,0.418-3.461,2.706-5.117,4.112s-4.957,2.134-6.021,2.134h-0.111c-1.063,0-4.363-0.728-6.02-2.134
			s-2.985-3.694-5.117-4.112c-2.9-0.569-4.553-1.003-4.553-4.418c0-2.22,0.494-3.874,1.107-5.346
			c0.934-2.237,2.928-1.867,2.928-1.867s0.072-0.981-1.824-0.758c-1.229,0.145-3.125,1.802-4.313,6.271
			c-0.398,1.501-0.68,2.521-0.843,3.287c-1.776,1.005-3.729,2.283-4.991,3.63c-2.834,3.021-2.873,7.414-7.54,4.484
			s-11.167-4.176-14.667-15.372c-1.693-5.419-3.689-11.971-5.453-17.793c-0.002-0.008-1.321-5.145-0.297-6.34
			c1.198-1.396,5.424,2.351,5.424,2.351l-0.008-0.014c2.041,1.843,4.392,3.474,7.051,4.556c9.04,3.677,18.033-1.997,32.283-2.831
			c1.991-0.117,1.375-4.843,6.5-4.843c5.25,0,5.605,5.132,7.75,5.177c12.25,0.25,22.103,6.131,31.033,2.497
			c2.685-1.092,5.097-2.771,7.211-4.681l-0.004,0.006c0,0,4.587-3.615,5.826-2.218c1.052,1.189-0.283,6.615-0.299,6.681
			c-1.738,5.736-3.689,12.14-5.351,17.452C1000.019,271.163,993.519,272.409,988.851,275.339z M1012.645,236.112
			c0.223-1.501,0.457-3.043,0.713-4.657c0.43-2.708,0.701-5.599,0.856-8.573c3.44-0.972,6.696-2.035,9.773-3.181
			c-0.636,2.567-1.395,5.405-2.303,8.471c-2.758,9.307-5.561,12.897-9.579,14.231
			C1012.296,240.351,1012.478,238.247,1012.645,236.112z M901.266,222.881c0.154,2.975,0.426,5.865,0.855,8.573
			c0.171,1.077,0.332,2.121,0.487,3.146c0.194,2.617,0.414,5.187,0.645,7.684c-3.846-1.419-6.572-5.061-9.255-14.114
			c-0.898-3.031-1.65-5.842-2.282-8.388C894.728,220.898,897.909,221.933,901.266,222.881z"/>
		<path d="M953.715,264.208c-0.188-4.563-1.375-8.313-0.688-12.5s-0.313-9.188-0.313-9.188s-1.176,7.5-2.238,9.938
			s-0.875,5.063,0.438,8.125s0.726,9.813,3.301,10.813C956.789,272.396,953.902,268.771,953.715,264.208z"/>
		<path d="M965.039,249.496c-0.625-2-2.711-6.976-2.711-6.976s0,5,0.688,9.188s-0.5,7.938-0.688,12.5s-1.352,6.438-1.5,7.188
			c1.413,0.75,3.336-1.188,3.336-3.375s0.25-6.274,1.313-10.799S965.664,251.496,965.039,249.496z"/>
		<path d="M957.74,119.42c-0.588,0-1.136-0.15-1.629-0.396l-5.415,10.971l-12.1,1.758c0.021,0.156,0.048,0.311,0.048,0.473
			c0,1.017-0.413,1.938-1.08,2.607l8.78,8.559l-2.068,12.061c1.123,0.223,2.052,0.961,2.56,1.951l10.904-5.732l10.838,5.697
			c0.524-0.996,1.479-1.725,2.624-1.924l-2.066-12.053l8.78-8.559c-0.667-0.669-1.08-1.591-1.08-2.607
			c0-0.162,0.027-0.316,0.048-0.473l-12.1-1.758l-5.415-10.971C958.876,119.27,958.328,119.42,957.74,119.42z"/>
		<circle cx="957.74" cy="115.725" r="2.695"/>
		<path d="M983.226,132.226c0-1.486-1.209-2.695-2.694-2.695c-1.486,0-2.695,1.209-2.695,2.695s1.209,2.695,2.695,2.695
			C982.017,134.921,983.226,133.712,983.226,132.226z"/>
		<circle cx="934.949" cy="132.226" r="2.695"/>
		<circle cx="971.836" cy="159.076" r="2.695"/>
		<circle cx="943.559" cy="159.076" r="2.695"/>
	</g>
</g>
<path fill="none" d="M215.147,86.187c0.484,0.512,1.054,0.948,1.693,1.321c-0.539-0.34-1.023-0.729-1.444-1.175
	c-1.4-1.48-1.763-3.151-1.853-4.054c-0.076,0.02-0.146,0.042-0.222,0.063C213.444,83.276,213.845,84.81,215.147,86.187z"/>
<path fill="none" d="M329.327,144.166c0.089,0.095,0.177,0.19,0.265,0.285c-2.558-22.129-11.127-47.07-33.66-60.806
	c0,0.003-0.001,0.008-0.001,0.011C318.229,97.394,326.76,122.154,329.327,144.166z"/>
<path fill="none" d="M260.698,103.109c0.064,0.017,0.128,0.035,0.192,0.052c-4.08-6.386-9.074-11.407-14.647-14.688
	C251.743,91.772,256.668,96.774,260.698,103.109z"/>
<path fill="none" d="M167.309,109.764c0.015-0.006,0.03-0.014,0.044-0.02c-6.758-5.411-14.541-14.235-15.29-25.974
	c-0.074,0.055-0.145,0.113-0.219,0.169C152.721,95.637,160.564,104.416,167.309,109.764z"/>
<path d="M333.931,149.327c-3.452-24.291-14.337-60.844-40.708-70.014c-0.21,6.174-3.404,18.973-15.739,29.348
	c-4.266-1.709-8.632-3.219-13.087-4.522c-4.303-7.587-9.235-13.834-15.608-17.914c-13.76-8.808-15.522-6.923-25.048-6.923
	s-11.289-1.885-25.049,6.923c-6.372,4.08-11.303,10.327-15.606,17.913c-4.383,1.282-8.681,2.762-12.88,4.438
	c-12.512-10.281-15.738-23.053-15.95-29.263c-26.372,9.17-37.255,45.723-40.707,70.015c-21.438,25.219-34.379,57.883-34.379,93.576
	c0,79.844,64.727,144.569,144.57,144.569s144.57-64.726,144.57-144.569C368.311,207.211,355.369,174.546,333.931,149.327z
	 M230.287,239.93c0.249,0.179,0.514,0.293,0.815,0.3c12.25,0.25,22.103,6.131,31.033,2.497c2.685-1.092,5.097-2.771,7.211-4.681
	l-0.004,0.006c0,0,3.876-3.05,5.462-2.452c0.038,0.03,0.082,0.05,0.115,0.087c1.052,1.189-0.283,6.615-0.299,6.682
	c-1.738,5.736-3.689,12.14-5.351,17.452c-3.5,11.196-10,12.442-14.668,15.372c-1.565,0.982-2.43,1.192-3.003,0.938
	c-0.898-0.72-1.011-2.871-2.748-4.723c-0.962-1.025-2.5-2.073-4.112-3.013c-0.893-0.529-1.811-1.023-2.68-1.466
	c-0.271-2.531-1.733-5.726-2.29-7.556c-0.394-1.295-1.013-2.021-1.66-2.355c-1.309-0.908-2.845-0.039-2.906,1.255
	c0,0,0.114-0.084,0.298-0.175c-0.026,0.104-0.043,0.213-0.049,0.325c0,0,0.891-0.656,1.742-0.249
	c0.262,0.199,0.512,0.514,0.72,1.011c0.615,1.472,1.323,4.066,1.323,6.286c0,3.415-1.651,3.829-4.552,4.398
	c-2.133,0.418-3.461,2.667-5.117,4.073S224.61,276,223.546,276h-0.111c-1.057,0-4.321-0.644-5.986-2.032
	c-1.188-1.078-2.236-2.544-3.568-3.363c-0.484-0.327-1.002-0.581-1.582-0.694c-1.179-0.231-2.148-0.443-2.887-0.84
	c-0.92-0.595-1.417-1.567-1.417-3.433c0-2.22,0.494-3.874,1.107-5.346c0.934-2.237,2.928-1.867,2.928-1.867s0.019-0.425-0.509-0.65
	c-0.235-0.198-0.682-0.357-1.564-0.253c-1.229,0.145-3.125,1.802-4.313,6.271c-0.398,1.501-0.68,2.521-0.843,3.287
	c-1.776,1.005-3.729,2.283-4.991,3.63c-2.803,2.988-2.879,7.305-7.395,4.566c-0.181-0.111-0.364-0.221-0.549-0.328
	c-1.454-0.867-3.066-1.61-4.699-2.557c-3.487-2.064-7.037-5.136-9.315-12.424c-1.693-5.419-3.689-11.971-5.453-17.793
	c-0.002-0.008-1.321-5.145-0.297-6.34c0.514-0.6,1.586-0.249,2.643,0.344c1.313,0.785,2.532,1.862,2.532,1.862l-0.008-0.014
	c1.536,1.387,3.249,2.653,5.136,3.656c0.699,0.384,1.416,0.74,2.164,1.045c9.04,3.677,18.033-1.997,32.283-2.831
	c1.991-0.117,1.375-4.843,6.5-4.843c1.24,0,2.2,0.292,2.982,0.73C228.356,237.06,229.087,239.337,230.287,239.93z M167.872,231.309
	c0.171,1.077,0.332,2.121,0.487,3.146c0.194,2.617,0.414,5.188,0.645,7.685c-0.451-0.166-0.885-0.366-1.307-0.599
	c-3.053-1.811-5.394-5.589-7.699-13.37c-0.898-3.031-1.65-5.842-2.282-8.388c2.938,1.087,6.04,2.097,9.306,3.026
	C167.176,225.758,167.446,228.624,167.872,231.309z M234.477,292.833c-3,0.813-4.438,2.25-10.736,2.25s-5.951,0.625-9.826-0.875
	c-3.139-1.215-8.86-3.568-10.92-4.419c0.622-0.105,1.483-0.234,2.458-0.338c-0.304-0.081-0.475-0.125-0.475-0.125
	s1.404-0.174,3.26-0.046c1.643-0.021,3.287,0.125,4.49,0.629c3.5,1.467,12.25,2.267,18.375,0c4.56-1.688,9.333-0.53,11.476,0.172
	C239.901,290.457,237.022,292.144,234.477,292.833z M215.384,360.406c-1.458-2.091-3.456-4.954-7.024-8.769
	c-0.611-0.653-2.354-2.178-4.371-3.942c-3.015-2.638-6.768-5.92-7.639-7.102c-3.614-4.902-4.185-7.428-4.845-10.353
	c-0.933-4.132-2.094-9.274-11.914-22.888c-10.998-15.244-8.616-24.434-6.022-28.719c2.305,5.82,6.118,11.705,11.034,17.269
	c7.732,8.751,13.97,20.284,19.563,23.485c0.398,0.245,0.794,0.452,1.186,0.61c5.834,2.356,10.5,1.29,18.334,1.29
	c7.832,0,12.499,1.066,18.333-1.29c5.833-2.355,12.332-14.708,20.5-23.95c5.182-5.865,9.129-12.087,11.383-18.214
	c0.302,6.534-1.138,16.813-6.276,33.015c-1.571,4.955-6.163,10.1-11.025,15.547c-3.94,4.416-8.016,8.981-10.439,13.535
	c-11.147,20.948-14.188,25.443-21.059,25.443c-3.111,0-4.884-0.26-6.212-0.986C217.625,363.607,216.742,362.353,215.384,360.406z
	 M287.436,228.025c-2.695,9.093-5.436,12.724-9.308,14.13c0.182-1.975,0.357-3.993,0.517-6.043c0.223-1.501,0.457-3.043,0.713-4.657
	c0.43-2.708,0.701-5.599,0.856-8.573c3.325-0.939,6.474-1.966,9.459-3.067C289.05,222.314,288.314,225.061,287.436,228.025z
	 M215.396,86.333c0.421,0.445,0.905,0.834,1.444,1.175c1.72,1.086,4.029,1.639,6.9,1.639c4.824,0,6.69-1.548,8.19-2.792
	c1.094-0.908,1.958-1.625,3.741-1.625c1.133,0,2.558,0.292,4.355,0.892c2.137,0.712,4.212,1.672,6.215,2.852
	c5.574,3.282,10.567,8.303,14.647,14.688c-0.064-0.017-0.128-0.035-0.192-0.052c2.442,3.837,4.558,8.159,6.268,12.895
	c2.067,5.724,4.101,10.313,5.734,14.002c3.599,8.123,5.581,12.598,3.597,18.331l-0.321,0.941
	c-3.222,9.485-9.926,29.223-52.484,29.223c-15.616,0-27.776-2.345-36.309-6.985c-2.736-1.516-5.101-3.267-7.071-5.261
	c-5.137-5.197-7.691-12.073-7.593-20.436c0.199-16.926,10.393-35.914,19.062-47.031c6.943-8.907,12.293-13.964,21.742-16.446
	c0.076-0.02,0.146-0.043,0.222-0.063C213.634,83.181,213.996,84.852,215.396,86.333z M167.353,109.744
	c-0.015,0.006-0.03,0.014-0.044,0.02c2.415,1.916,4.687,3.391,6.447,4.403c1.181,0.69,2.145,1.181,2.797,1.469
	c-1.459,4.532-11.616,36.456-11.616,46.491c0.038,12.187,5.501,19.764,13.383,24.48c12.972,7.912,32.676,7.914,45.477,7.914
	c27.917,0,44.801-5.643,53.134-17.759c9.217-13.402,6.989-37.729-5.388-59.305c20.374-11.06,23.86-29.701,24.388-33.802
	c0-0.003,0.001-0.008,0.001-0.011c22.532,13.736,31.102,38.677,33.66,60.806c-0.088-0.095-0.176-0.19-0.265-0.285
	c2.094,17.952,0.226,34.073-1.377,40.887c-4.585,19.486-50.255,41.281-104.514,41.281c-28.832,0-55.495-5.117-75.078-14.41
	c-2.685-1.274-5.213-2.618-7.587-4.027c-16.998-10.162-25.919-23.72-25.919-39.584c0-37.551,12.446-65.928,36.993-84.374
	c0.074-0.056,0.145-0.114,0.219-0.169C152.812,95.509,160.595,104.333,167.353,109.744z"/>
<path d="M229.61,270.031c0.337-0.583,0.554-1.281,0.554-2.011c0-2.188,0.25-6.274,1.313-10.799s0.188-5.726-0.438-7.726
	s-2.711-6.976-2.711-6.976s0,0.383,0.015,1.012c-0.159-0.687-0.264-1.157-0.264-1.157s0,0.25,0.008,0.668
	c-0.002-0.004-0.008-0.019-0.008-0.019s0,5,0.688,9.188c0.146,0.893,0.195,1.764,0.199,2.628c-0.079,2.966-0.749,5.876-0.887,9.223
	c-0.023,0.564-0.04,1.076-0.052,1.542c-0.29,3.918-1.31,5.596-1.448,6.295C227.65,272.468,229.014,271.49,229.61,270.031z"/>
<path d="M222.196,117.928c0.438,0.308,0.969,0.492,1.544,0.492c1.486,0,2.695-1.209,2.695-2.695c0-1.015-0.57-1.89-1.4-2.349
	c-0.438-0.308-0.969-0.492-1.544-0.492c-1.486,0-2.695,1.209-2.695,2.695C220.796,116.594,221.366,117.468,222.196,117.928z"/>
<path fill="#FFFFFF" d="M246.161,339.932c2.424-4.554,6.499-9.119,10.439-13.535c4.862-5.447,9.454-10.592,11.025-15.547
	c5.138-16.202,6.578-26.48,6.276-33.015c-2.254,6.127-6.201,12.349-11.383,18.214c-8.168,9.242-14.667,21.595-20.5,23.95
	c-5.834,2.356-10.501,1.29-18.333,1.29c-7.834,0-12.5,1.066-18.334-1.29c-0.392-0.158-0.788-0.365-1.186-0.61
	c-5.593-3.201-11.831-14.734-19.563-23.485c-4.916-5.563-8.729-11.448-11.034-17.269c-2.594,4.285-4.976,13.475,6.022,28.719
	c9.82,13.613,10.981,18.756,11.914,22.888c0.66,2.925,1.23,5.45,4.845,10.353c0.871,1.182,4.624,4.464,7.639,7.102
	c2.018,1.765,3.76,3.289,4.371,3.942c3.568,3.814,5.566,6.678,7.024,8.769c1.358,1.946,2.241,3.201,3.507,3.982
	c1.328,0.727,3.101,0.986,6.212,0.986C231.974,365.375,235.014,360.88,246.161,339.932z"/>
<path fill="#FFFFFF" d="M159.998,228.171c2.306,7.781,4.646,11.559,7.699,13.37c0.422,0.232,0.856,0.433,1.307,0.599
	c-0.23-2.497-0.45-5.067-0.645-7.685c-0.155-1.025-0.316-2.069-0.487-3.146c-0.426-2.685-0.696-5.551-0.851-8.499
	c-3.266-0.929-6.368-1.939-9.306-3.026C158.348,222.33,159.1,225.14,159.998,228.171z"/>
<path fill="#FFFFFF" d="M279.357,231.455c-0.256,1.614-0.49,3.156-0.713,4.657c-0.16,2.05-0.335,4.069-0.517,6.043
	c3.873-1.406,6.613-5.037,9.308-14.13c0.878-2.965,1.614-5.711,2.237-8.211c-2.985,1.102-6.134,2.128-9.459,3.067
	C280.059,225.856,279.787,228.747,279.357,231.455z"/>
<path fill="#FFFFFF" d="M216.852,239.896c-14.25,0.834-23.243,6.508-32.283,2.831c-0.748-0.305-1.465-0.661-2.164-1.045
	c-1.887-1.003-3.6-2.269-5.136-3.656l0.008,0.014c0,0-1.219-1.077-2.532-1.862c-1.056-0.593-2.128-0.943-2.643-0.344
	c-1.024,1.195,0.295,6.333,0.297,6.34c1.764,5.822,3.76,12.374,5.453,17.793c2.278,7.288,5.828,10.359,9.315,12.424
	c1.633,0.946,3.245,1.689,4.699,2.557c0.186,0.107,0.369,0.217,0.549,0.328c4.515,2.738,4.592-1.578,7.395-4.566
	c1.263-1.347,3.215-2.625,4.991-3.63c0.163-0.766,0.444-1.786,0.843-3.287c1.188-4.469,3.084-6.126,4.313-6.271
	c0.883-0.104,1.329,0.055,1.564,0.253c0.528,0.226,0.509,0.65,0.509,0.65s-1.994-0.37-2.928,1.867
	c-0.613,1.472-1.107,3.126-1.107,5.346c0,1.865,0.496,2.838,1.417,3.433c0.739,0.396,1.708,0.608,2.887,0.84
	c0.58,0.113,1.098,0.367,1.582,0.694c1.332,0.819,2.38,2.285,3.568,3.363c1.666,1.389,4.929,2.032,5.986,2.032h0.111
	c1.064,0,4.365-0.649,6.021-2.056s2.984-3.655,5.117-4.073c2.9-0.569,4.552-0.983,4.552-4.398c0-2.22-0.708-4.814-1.323-6.286
	c-0.208-0.497-0.458-0.812-0.72-1.011c-0.852-0.407-1.742,0.249-1.742,0.249c0.005-0.112,0.022-0.221,0.049-0.325
	c-0.184,0.091-0.298,0.175-0.298,0.175c0.062-1.294,1.598-2.163,2.906-1.255c0.647,0.334,1.266,1.061,1.66,2.355
	c0.557,1.83,2.019,5.024,2.29,7.556c0.869,0.442,1.787,0.937,2.68,1.466c1.613,0.939,3.15,1.987,4.112,3.013
	c1.737,1.852,1.85,4.003,2.748,4.723c0.574,0.254,1.438,0.044,3.003-0.938c4.668-2.93,11.168-4.176,14.668-15.372
	c1.661-5.313,3.612-11.716,5.351-17.452c0.016-0.066,1.351-5.492,0.299-6.682c-0.033-0.037-0.077-0.057-0.115-0.087
	c-1.586-0.598-5.462,2.452-5.462,2.452l0.004-0.006c-2.114,1.909-4.526,3.589-7.211,4.681c-8.931,3.634-18.783-2.247-31.033-2.497
	c-0.301-0.006-0.566-0.121-0.815-0.3c-1.199-0.592-1.93-2.87-3.953-4.147c-0.782-0.438-1.742-0.73-2.982-0.73
	C218.227,235.052,218.843,239.778,216.852,239.896z M221.021,271.534c0.035,0.521-0.221,0.689-1.055,0.365
	c-2.575-1-1.988-7.75-3.301-10.813c-0.823-1.92-1.203-3.668-1.11-5.306c-0.022-1.21,0.189-2.36,0.673-3.469
	c1.063-2.438,2.238-9.938,2.238-9.938s0,0.263-0.008,0.701c0.003-0.021,0.008-0.052,0.008-0.052s0.035,0.174,0.086,0.482
	c0.102-0.603,0.163-0.986,0.163-0.986s1,5,0.313,9.188s0.5,7.938,0.688,12.5C219.874,268.085,221.971,271.274,221.021,271.534z
	 M228.027,265.604c0.012-0.466,0.028-0.978,0.052-1.542c0.138-3.347,0.808-6.257,0.887-9.223c-0.004-0.864-0.053-1.735-0.199-2.628
	c-0.688-4.188-0.688-9.188-0.688-9.188s0.006,0.015,0.008,0.019c-0.008-0.418-0.008-0.668-0.008-0.668s0.105,0.471,0.264,1.157
	c-0.014-0.629-0.015-1.012-0.015-1.012s2.086,4.976,2.711,6.976s1.5,3.201,0.438,7.726s-1.313,8.611-1.313,10.799
	c0,0.729-0.216,1.428-0.554,2.011c-0.597,1.459-1.96,2.437-3.031,1.868C226.718,271.2,227.737,269.522,228.027,265.604z"/>
<path fill="#FFFFFF" d="M151.844,83.939c-24.547,18.446-36.993,46.823-36.993,84.374c0,15.864,8.921,29.422,25.919,39.584
	c2.375,1.409,4.903,2.753,7.587,4.027c19.583,9.293,46.246,14.41,75.078,14.41c54.259,0,99.929-21.795,104.514-41.281
	c1.603-6.814,3.471-22.936,1.377-40.887c-2.567-22.011-11.099-46.772-33.396-60.51c-0.528,4.101-4.014,22.742-24.388,33.802
	c12.377,21.576,14.604,45.902,5.388,59.305c-8.333,12.116-25.217,17.759-53.134,17.759c-12.801,0-32.505-0.002-45.477-7.914
	c-7.882-4.716-13.346-12.293-13.383-24.48c0-10.035,10.157-41.959,11.616-46.491c-0.652-0.288-1.616-0.779-2.797-1.469
	c-1.76-1.012-4.032-2.487-6.447-4.403C160.564,104.416,152.721,95.637,151.844,83.939z"/>
<path fill="#FFFFFF" d="M213.322,82.341c-9.449,2.482-14.798,7.539-21.742,16.446c-8.669,11.117-18.862,30.105-19.062,47.031
	c-0.099,8.362,2.456,15.238,7.593,20.436c1.971,1.995,4.335,3.746,7.071,5.261c8.533,4.641,20.693,6.985,36.309,6.985
	c42.559,0,49.263-19.737,52.484-29.223l0.321-0.941c1.984-5.733,0.002-10.208-3.597-18.331c-1.634-3.688-3.667-8.278-5.734-14.002
	c-1.71-4.736-3.826-9.058-6.268-12.895c-4.03-6.334-8.955-11.337-14.456-14.637c-2.002-1.179-4.078-2.139-6.215-2.852
	c-1.798-0.6-3.223-0.892-4.355-0.892c-1.783,0-2.647,0.717-3.741,1.625c-1.5,1.244-3.366,2.792-8.19,2.792
	c-2.871,0-5.18-0.552-6.9-1.639c-0.639-0.373-1.209-0.809-1.693-1.321C213.845,84.81,213.444,83.276,213.322,82.341z
	 M223.491,112.884c0.575,0,1.105,0.184,1.544,0.492c0.83,0.459,1.4,1.334,1.4,2.349c0,1.486-1.209,2.695-2.695,2.695
	c-0.575,0-1.106-0.184-1.544-0.492c-0.831-0.46-1.4-1.334-1.4-2.349C220.796,114.093,222.005,112.884,223.491,112.884z
	 M200.949,134.921c-0.575,0-1.106-0.184-1.544-0.492c-0.831-0.46-1.4-1.334-1.4-2.349c0-1.486,1.209-2.695,2.695-2.695
	c0.575,0,1.105,0.184,1.544,0.492c0.83,0.459,1.4,1.334,1.4,2.349C203.645,133.712,202.436,134.921,200.949,134.921z
	 M209.559,161.771c-0.575,0-1.106-0.184-1.544-0.492c-0.831-0.46-1.4-1.334-1.4-2.349c0-1.486,1.209-2.695,2.695-2.695
	c0.575,0,1.105,0.184,1.544,0.492c0.83,0.459,1.4,1.334,1.4,2.349C212.254,160.562,211.045,161.771,209.559,161.771z
	 M237.836,161.771c-0.575,0-1.106-0.184-1.544-0.492c-0.831-0.46-1.4-1.334-1.4-2.349c0-1.486,1.209-2.695,2.695-2.695
	c0.575,0,1.105,0.184,1.543,0.492c0.83,0.459,1.4,1.334,1.4,2.349C240.53,160.562,239.321,161.771,237.836,161.771z
	 M235.136,143.392l2.066,12.053c-1.146,0.199-2.1,0.928-2.624,1.924l-10.838-5.697l-10.904,5.732
	c-0.038-0.074-0.093-0.135-0.136-0.206l-0.113,0.06c-0.339-0.661-0.877-1.193-1.524-1.551c-0.249-0.113-0.511-0.2-0.786-0.254
	l0.011-0.062c-0.088-0.024-0.169-0.066-0.26-0.084l2.068-12.061l-8.78-8.559c0.667-0.669,1.08-1.591,1.08-2.607
	c0-0.162-0.027-0.316-0.048-0.473l12.1-1.758l5.415-10.971c0.493,0.245,1.041,0.396,1.629,0.396s1.136-0.15,1.629-0.396l0.1,0.202
	c0.048-0.022,0.102-0.032,0.149-0.056l5.356,10.853l11.909,1.73c-0.005,0.036-0.006,0.072-0.011,0.108l0.26,0.038
	c-0.021,0.156-0.048,0.311-0.048,0.473c0,1.017,0.413,1.938,1.08,2.607L235.136,143.392z M246.531,134.921
	c-0.575,0-1.106-0.184-1.544-0.492c-0.831-0.46-1.4-1.334-1.4-2.349c0-1.486,1.209-2.695,2.695-2.695
	c0.575,0,1.105,0.184,1.543,0.492c0.83,0.459,1.4,1.334,1.4,2.349C249.226,133.712,248.017,134.921,246.531,134.921z"/>
<path fill="#FFFFFF" d="M231.103,289.909c-6.125,2.267-14.875,1.467-18.375,0c-1.203-0.504-2.848-0.649-4.49-0.629
	c-1.855-0.128-3.26,0.046-3.26,0.046s0.171,0.044,0.475,0.125c-0.976,0.104-1.837,0.232-2.458,0.338
	c2.061,0.851,7.781,3.204,10.92,4.419c3.875,1.5,3.527,0.875,9.826,0.875s7.736-1.438,10.736-2.25
	c2.545-0.689,5.425-2.376,8.102-2.752C240.435,289.379,235.663,288.222,231.103,289.909z"/>
<path d="M219.027,251.708c0.688-4.188-0.313-9.188-0.313-9.188s-0.061,0.384-0.163,0.986c-0.052-0.309-0.086-0.482-0.086-0.482
	s-0.005,0.03-0.008,0.052c0.008-0.438,0.008-0.701,0.008-0.701s-1.176,7.5-2.238,9.938c-0.483,1.108-0.695,2.259-0.673,3.469
	c-0.093,1.638,0.287,3.386,1.11,5.306c1.313,3.063,0.726,9.813,3.301,10.813c0.834,0.324,1.09,0.156,1.055-0.365
	c0.95-0.26-1.147-3.449-1.306-7.326C219.527,259.646,218.34,255.896,219.027,251.708z"/>
<path d="M242.884,131.753l-0.26-0.038c0.005-0.036,0.006-0.073,0.011-0.108l-11.909-1.73l-5.356-10.853
	c-0.047,0.023-0.101,0.034-0.149,0.056l-0.1-0.202c-0.493,0.245-1.041,0.396-1.629,0.396s-1.136-0.15-1.629-0.396l-5.415,10.971
	l-12.1,1.758c0.021,0.156,0.048,0.311,0.048,0.473c0,1.017-0.413,1.938-1.08,2.607l8.78,8.559l-2.068,12.061
	c0.091,0.018,0.171,0.06,0.26,0.084l-0.011,0.062c0.275,0.055,0.538,0.142,0.786,0.254c0.647,0.358,1.186,0.89,1.524,1.551
	l0.113-0.06c0.042,0.071,0.098,0.132,0.136,0.206l10.904-5.732l10.838,5.697c0.524-0.996,1.479-1.725,2.624-1.924l-2.066-12.053
	l8.78-8.559c-0.667-0.669-1.08-1.591-1.08-2.607C242.836,132.064,242.863,131.91,242.884,131.753z"/>
<path d="M247.825,129.877c-0.438-0.308-0.968-0.492-1.543-0.492c-1.486,0-2.695,1.209-2.695,2.695c0,1.015,0.57,1.889,1.4,2.349
	c0.438,0.308,0.969,0.492,1.544,0.492c1.485,0,2.694-1.209,2.694-2.695C249.226,131.211,248.655,130.336,247.825,129.877z"/>
<path d="M202.244,129.877c-0.438-0.308-0.969-0.492-1.544-0.492c-1.486,0-2.695,1.209-2.695,2.695c0,1.015,0.57,1.889,1.4,2.349
	c0.438,0.308,0.969,0.492,1.544,0.492c1.486,0,2.695-1.209,2.695-2.695C203.645,131.211,203.074,130.336,202.244,129.877z"/>
<path d="M239.13,156.727c-0.438-0.308-0.968-0.492-1.543-0.492c-1.486,0-2.695,1.209-2.695,2.695c0,1.015,0.57,1.889,1.4,2.349
	c0.438,0.308,0.969,0.492,1.544,0.492c1.485,0,2.694-1.209,2.694-2.695C240.53,158.061,239.96,157.186,239.13,156.727z"/>
<path d="M210.854,156.727c-0.438-0.308-0.969-0.492-1.544-0.492c-1.486,0-2.695,1.209-2.695,2.695c0,1.015,0.57,1.889,1.4,2.349
	c0.438,0.308,0.969,0.492,1.544,0.492c1.486,0,2.695-1.209,2.695-2.695C212.254,158.061,211.684,157.186,210.854,156.727z"/>
</svg>
